<?xml version="1.0" encoding="UTF-8" standalone="no"?>
<svg
   xmlns:dc="http://purl.org/dc/elements/1.1/"
   xmlns:cc="http://creativecommons.org/ns#"
   xmlns:rdf="http://www.w3.org/1999/02/22-rdf-syntax-ns#"
   xmlns:svg="http://www.w3.org/2000/svg"
   xmlns="http://www.w3.org/2000/svg"
   xmlns:sodipodi="http://sodipodi.sourceforge.net/DTD/sodipodi-0.dtd"
   xmlns:inkscape="http://www.inkscape.org/namespaces/inkscape"
   inkscape:version="1.0 (4035a4fb49, 2020-05-01)"
   sodipodi:docname="action-overlays.svg"
   id="svg71"
   version="1.1"
   height="48"
   width="48">
  <metadata
     id="metadata77">
    <rdf:RDF>
      <cc:Work
         rdf:about="">
        <dc:format>image/svg+xml</dc:format>
        <dc:type
           rdf:resource="http://purl.org/dc/dcmitype/StillImage" />
      </cc:Work>
    </rdf:RDF>
  </metadata>
  <defs
     id="defs75" />
  <sodipodi:namedview
     inkscape:document-rotation="0"
     inkscape:current-layer="svg71"
     inkscape:window-maximized="1"
     inkscape:window-y="32"
     inkscape:window-x="0"
     inkscape:cy="19.681031"
     inkscape:cx="20.312419"
     inkscape:zoom="9.8333335"
     showgrid="false"
     id="namedview73"
     inkscape:window-height="1023"
     inkscape:window-width="1920"
     inkscape:pageshadow="2"
     inkscape:pageopacity="0"
     guidetolerance="10"
     gridtolerance="10"
     objecttolerance="10"
     borderopacity="1"
     bordercolor="#666666"
     pagecolor="#ffffff" />
  <g
     transform="translate(0,-18)"
     id="remove-normal">
    <rect
       id="rect2"
       y="34"
       x="0"
       height="16"
       width="16"
       style="opacity:0.001" />
    <path
       id="path4"
       d="m 15,41.999999 a 6.9999999,6.9999999 0 0 1 -7,6.999999 6.9999999,6.9999999 0 0 1 -7,-6.999999 6.9999999,6.9999999 0 0 1 7,-7 6.9999999,6.9999999 0 0 1 7,7 z"
       style="fill:#1e3c50;fill-opacity:1" />
    <rect
       id="rect6"
       transform="rotate(90)"
       y="-12"
       x="41"
       height="8"
       width="2"
       style="fill:#ffffff" />
  </g>
  <g
     transform="translate(0,-18)"
     id="add-normal">
    <rect
       id="rect9"
       y="18"
       x="0"
       height="16"
       width="16"
       style="opacity:0.001" />
    <path
       id="path11"
       d="m 15,25.999999 a 6.9999999,6.9999999 0 0 1 -7,6.999999 6.9999999,6.9999999 0 0 1 -7,-6.999999 6.9999999,6.9999999 0 0 1 7,-7 6.9999999,6.9999999 0 0 1 7,7 z"
       style="fill:#1e3c50;fill-opacity:1" />
    <rect
       id="rect13"
       y="22"
       x="7"
       height="8"
       width="2"
       style="fill:#ffffff" />
    <rect
       id="rect15"
       transform="rotate(90)"
       y="-12"
       x="25"
       height="8"
       width="2"
       style="fill:#ffffff" />
  </g>
  <g
     transform="translate(0,-18)"
     id="open-normal">
    <rect
       id="rect18"
       y="50"
       x="0"
       height="16"
       width="16"
       style="opacity:0.001" />
    <path
       id="path20"
       d="m 15,57.999999 a 6.9999999,6.9999999 0 0 1 -7,6.999999 6.9999999,6.9999999 0 0 1 -7,-6.999999 6.9999999,6.9999999 0 0 1 7,-7 6.9999999,6.9999999 0 0 1 7,7 z"
       style="fill:#1e3c50;fill-opacity:1" />
    <path
       id="path22"
       d="M 8.2810355,36.558561 10.140518,39.779279 12,42.999997 l -3.7189646,0 -3.7189647,0 1.8594824,-3.220718 z"
       transform="matrix(1.0755682,0,0,0.77622444,-0.90681813,26.622351)"
       style="fill:#ffffff" />
  </g>
  <g
     transform="translate(16,-18)"
     id="remove-hover">
    <rect
       id="rect25"
       y="34"
       x="0"
       height="16"
       width="16"
       style="opacity:0.001" />
    <path
       id="path27"
       d="m 15,41.999999 a 6.9999999,6.9999999 0 0 1 -7,6.999999 6.9999999,6.9999999 0 0 1 -7,-6.999999 6.9999999,6.9999999 0 0 1 7,-7 6.9999999,6.9999999 0 0 1 7,7 z"
       style="fill:#1e3c50;fill-opacity:1" />
    <rect
       id="rect29"
       transform="rotate(90)"
       y="-12"
       x="41"
       height="8"
       width="2"
       style="fill:#ffffff" />
  </g>
  <g
     transform="translate(16,-18)"
     id="add-hover">
    <rect
       id="rect32"
       y="18"
       x="0"
       height="16"
       width="16"
       style="opacity:0.001" />
    <path
       id="path34"
       d="m 15,25.999999 a 6.9999999,6.9999999 0 0 1 -7,6.999999 6.9999999,6.9999999 0 0 1 -7,-6.999999 6.9999999,6.9999999 0 0 1 7,-7 6.9999999,6.9999999 0 0 1 7,7 z"
       style="fill:#1e3c50;fill-opacity:1" />
    <rect
       id="rect36"
       y="22"
       x="7"
       height="8"
       width="2"
       style="fill:#ffffff" />
    <rect
       id="rect38"
       transform="rotate(90)"
       y="-12"
       x="25"
       height="8"
       width="2"
       style="fill:#ffffff" />
  </g>
  <g
     transform="translate(16,-18)"
     id="open-hover">
    <rect
       id="rect41"
       y="50"
       x="0"
       height="16"
       width="16"
       style="opacity:0.001" />
    <path
       id="path43"
       d="m 15,57.999999 a 6.9999999,6.9999999 0 0 1 -7,6.999999 6.9999999,6.9999999 0 0 1 -7,-6.999999 6.9999999,6.9999999 0 0 1 7,-7 6.9999999,6.9999999 0 0 1 7,7 z"
       style="fill:#1e3c50;fill-opacity:1" />
    <path
       id="path45"
       d="M 8.2810355,36.558561 10.140518,39.779279 12,42.999997 l -3.7189646,0 -3.7189647,0 1.8594824,-3.220718 z"
       transform="matrix(1.0755682,0,0,0.77622444,-0.90681813,26.622351)"
       style="fill:#ffffff" />
  </g>
  <g
     transform="translate(32,-18)"
     id="remove-pressed">
    <rect
       id="rect48"
       y="34"
       x="0"
       height="16"
       width="16"
       style="opacity:0.001" />
    <path
       id="path50"
       d="m 15,41.999999 a 6.9999999,6.9999999 0 0 1 -7,6.999999 6.9999999,6.9999999 0 0 1 -7,-6.999999 6.9999999,6.9999999 0 0 1 7,-7 6.9999999,6.9999999 0 0 1 7,7 z"
       style="fill:#32bed7;fill-opacity:1" />
    <rect
       id="rect52"
       transform="rotate(90)"
       y="-12"
       x="41"
       height="8"
       width="2"
       style="fill:#ffffff" />
  </g>
  <g
     transform="translate(32,-18)"
     id="add-pressed">
    <rect
       id="rect55"
       y="18"
       x="0"
       height="16"
       width="16"
       style="opacity:0.001" />
    <path
       id="path57"
       d="m 15,25.999999 a 6.9999999,6.9999999 0 0 1 -7,6.999999 6.9999999,6.9999999 0 0 1 -7,-6.999999 6.9999999,6.9999999 0 0 1 7,-7 6.9999999,6.9999999 0 0 1 7,7 z"
       style="fill:#32bed7;fill-opacity:1" />
    <rect
       id="rect59"
       y="22"
       x="7"
       height="8"
       width="2"
       style="fill:#ffffff" />
    <rect
       id="rect61"
       transform="rotate(90)"
       y="-12"
       x="25"
       height="8"
       width="2"
       style="fill:#ffffff" />
  </g>
  <g
     transform="translate(32,-18)"
     id="open-pressed">
    <rect
       id="rect64"
       y="50"
       x="0"
       height="16"
       width="16"
       style="opacity:0.001" />
    <path
       id="path66"
       d="m 15,57.999999 a 6.9999999,6.9999999 0 0 1 -7,6.999999 6.9999999,6.9999999 0 0 1 -7,-6.999999 6.9999999,6.9999999 0 0 1 7,-7 6.9999999,6.9999999 0 0 1 7,7 z"
       style="fill:#32bed7;fill-opacity:1" />
    <path
       id="path68"
       d="M 8.2810355,36.558561 10.140518,39.779279 12,42.999997 l -3.7189646,0 -3.7189647,0 1.8594824,-3.220718 z"
       transform="matrix(1.0755682,0,0,0.77622444,-0.90681813,26.622351)"
       style="fill:#ffffff" />
  </g>
</svg>
