<?xml version="1.0" encoding="UTF-8" standalone="no"?>
<svg
   xmlns:dc="http://purl.org/dc/elements/1.1/"
   xmlns:cc="http://creativecommons.org/ns#"
   xmlns:rdf="http://www.w3.org/1999/02/22-rdf-syntax-ns#"
   xmlns:svg="http://www.w3.org/2000/svg"
   xmlns="http://www.w3.org/2000/svg"
   xmlns:sodipodi="http://sodipodi.sourceforge.net/DTD/sodipodi-0.dtd"
   xmlns:inkscape="http://www.inkscape.org/namespaces/inkscape"
   inkscape:version="1.0 (4035a4fb49, 2020-05-01)"
   sodipodi:docname="notes.svg"
   id="svg138"
   version="1"
   height="514"
   width="514">
  <metadata
     id="metadata144">
    <rdf:RDF>
      <cc:Work
         rdf:about="">
        <dc:format>image/svg+xml</dc:format>
        <dc:type
           rdf:resource="http://purl.org/dc/dcmitype/StillImage" />
      </cc:Work>
    </rdf:RDF>
  </metadata>
  <defs
     id="defs142" />
  <sodipodi:namedview
     inkscape:document-rotation="0"
     inkscape:current-layer="svg138"
     inkscape:window-maximized="1"
     inkscape:window-y="32"
     inkscape:window-x="0"
     inkscape:cy="257"
     inkscape:cx="257"
     inkscape:zoom="0.45914397"
     showgrid="false"
     id="namedview140"
     inkscape:window-height="1023"
     inkscape:window-width="1920"
     inkscape:pageshadow="2"
     inkscape:pageopacity="0"
     guidetolerance="10"
     gridtolerance="10"
     objecttolerance="10"
     borderopacity="1"
     bordercolor="#666666"
     pagecolor="#ffffff" />
  <g
     transform="translate(-1703,-29)"
     id="black-notes">
    <rect
       id="rect2"
       y="29"
       x="1703"
       height="514"
       width="514"
       style="opacity:0.001" />
    <path
       id="path4"
       d="m 1748.2188,35.000019 c -21.7272,0 -39.2188,17.491563 -39.2188,39.218746 V 89.906261 482.09371 497.78125 C 1709,519.50843 1726.4916,537 1748.2188,537 h 15.6874 392.1875 15.6875 C 2193.5084,537 2211,519.50843 2211,497.78125 V 482.09371 89.906261 74.218765 c 0,-21.727183 -17.4916,-39.218746 -39.2188,-39.218746 h -15.6875 -392.1875 z"
       style="opacity:0.02" />
    <path
       id="path6"
       d="m 1747.375,34.000019 c -21.8138,0 -39.375,17.561251 -39.375,39.374996 V 89.125011 482.87496 498.625 c 0,21.81374 17.5612,39.375 39.375,39.375 h 15.75 393.75 15.75 C 2194.4387,538 2212,520.43874 2212,498.625 V 482.87496 89.125011 73.375015 c 0,-21.813745 -17.5613,-39.374996 -39.375,-39.374996 h -15.75 -393.75 z"
       style="opacity:0.02" />
    <path
       id="path8"
       d="m 1746.5313,33.000019 c -21.9004,0 -39.5313,17.630939 -39.5313,39.531246 V 88.343761 483.65621 499.46875 C 1707,521.36905 1724.6309,539 1746.5313,539 h 15.8124 395.3125 15.8125 C 2195.3691,539 2213,521.36905 2213,499.46875 V 483.65621 88.343761 72.531265 c 0,-21.900307 -17.6309,-39.531246 -39.5313,-39.531246 h -15.8125 -395.3125 z"
       style="opacity:0.02" />
    <path
       id="path10"
       d="m 1745.6875,32.000019 c -21.9869,0 -39.6875,17.700627 -39.6875,39.687496 V 87.562511 484.43746 500.3125 c 0,21.98686 17.7006,39.6875 39.6875,39.6875 h 15.875 396.875 15.875 C 2196.2994,540 2214,522.29936 2214,500.3125 V 484.43746 87.562511 71.687515 c 0,-21.986869 -17.7006,-39.687496 -39.6875,-39.687496 h -15.875 -396.875 z"
       style="opacity:0.02" />
    <path
       id="path12"
       d="m 1744.8438,31.000019 c -22.0735,0 -39.8438,17.770315 -39.8438,39.843746 V 86.781261 485.21871 501.15625 C 1705,523.22967 1722.7703,541 1744.8438,541 h 15.9374 398.4375 15.9375 C 2197.2297,541 2215,523.22967 2215,501.15625 V 485.21871 86.781261 70.843765 c 0,-22.073431 -17.7703,-39.843746 -39.8438,-39.843746 h -15.9375 -398.4375 z"
       style="opacity:0.02" />
    <path
       id="path14"
       d="m 1744,30.000019 c -22.16,0 -40,17.840003 -40,39.999996 V 86.000011 485.99996 502 c 0,22.15998 17.84,40 40,40 h 16 400 16 c 22.16,0 40,-17.84002 40,-40 V 485.99996 86.000011 70.000015 c 0,-22.159993 -17.84,-39.999996 -40,-39.999996 h -16 -400 z"
       style="opacity:0.02" />
    <path
       id="path16"
       d="m 1749.0625,30.00001 c -21.6406,0 -39.0625,17.42187 -39.0625,39.0625 v 15.625 390.62494 15.62504 c 0,21.64062 17.4219,39.0625 39.0625,39.0625 h 15.625 390.625 15.625 c 21.6406,0 39.0625,-17.42188 39.0625,-39.0625 V 475.31245 84.68751 69.06251 c 0,-21.64063 -17.4219,-39.0625 -39.0625,-39.0625 h -15.625 -390.625 z"
       style="fill:#082332;fill-opacity:1" />
  </g>
  <g
     transform="translate(-1189,-29)"
     id="white-notes">
    <rect
       id="rect19"
       y="29"
       x="1703"
       height="514"
       width="514"
       style="opacity:0.001" />
    <path
       id="path21"
       d="m 1748.2188,35.000019 c -21.7272,0 -39.2188,17.491563 -39.2188,39.218746 V 89.906261 482.09371 497.78125 C 1709,519.50843 1726.4916,537 1748.2188,537 h 15.6874 392.1875 15.6875 C 2193.5084,537 2211,519.50843 2211,497.78125 V 482.09371 89.906261 74.218765 c 0,-21.727183 -17.4916,-39.218746 -39.2188,-39.218746 h -15.6875 -392.1875 z"
       style="opacity:0.02" />
    <path
       id="path23"
       d="m 1747.375,34.000019 c -21.8138,0 -39.375,17.561251 -39.375,39.374996 V 89.125011 482.87496 498.625 c 0,21.81374 17.5612,39.375 39.375,39.375 h 15.75 393.75 15.75 C 2194.4387,538 2212,520.43874 2212,498.625 V 482.87496 89.125011 73.375015 c 0,-21.813745 -17.5613,-39.374996 -39.375,-39.374996 h -15.75 -393.75 z"
       style="opacity:0.02" />
    <path
       id="path25"
       d="m 1746.5313,33.000019 c -21.9004,0 -39.5313,17.630939 -39.5313,39.531246 V 88.343761 483.65621 499.46875 C 1707,521.36905 1724.6309,539 1746.5313,539 h 15.8124 395.3125 15.8125 C 2195.3691,539 2213,521.36905 2213,499.46875 V 483.65621 88.343761 72.531265 c 0,-21.900307 -17.6309,-39.531246 -39.5313,-39.531246 h -15.8125 -395.3125 z"
       style="opacity:0.02" />
    <path
       id="path27"
       d="m 1745.6875,32.000019 c -21.9869,0 -39.6875,17.700627 -39.6875,39.687496 V 87.562511 484.43746 500.3125 c 0,21.98686 17.7006,39.6875 39.6875,39.6875 h 15.875 396.875 15.875 C 2196.2994,540 2214,522.29936 2214,500.3125 V 484.43746 87.562511 71.687515 c 0,-21.986869 -17.7006,-39.687496 -39.6875,-39.687496 h -15.875 -396.875 z"
       style="opacity:0.02" />
    <path
       id="path29"
       d="m 1744.8438,31.000019 c -22.0735,0 -39.8438,17.770315 -39.8438,39.843746 V 86.781261 485.21871 501.15625 C 1705,523.22967 1722.7703,541 1744.8438,541 h 15.9374 398.4375 15.9375 C 2197.2297,541 2215,523.22967 2215,501.15625 V 485.21871 86.781261 70.843765 c 0,-22.073431 -17.7703,-39.843746 -39.8438,-39.843746 h -15.9375 -398.4375 z"
       style="opacity:0.02" />
    <path
       id="path31"
       d="m 1744,30.000019 c -22.16,0 -40,17.840003 -40,39.999996 V 86.000011 485.99996 502 c 0,22.15998 17.84,40 40,40 h 16 400 16 c 22.16,0 40,-17.84002 40,-40 V 485.99996 86.000011 70.000015 c 0,-22.159993 -17.84,-39.999996 -40,-39.999996 h -16 -400 z"
       style="opacity:0.02" />
    <path
       id="path33"
       d="m 1749.0625,30.00001 c -21.6406,0 -39.0625,17.42187 -39.0625,39.0625 v 15.625 390.62494 15.62504 c 0,21.64062 17.4219,39.0625 39.0625,39.0625 h 15.625 390.625 15.625 c 21.6406,0 39.0625,-17.42188 39.0625,-39.0625 V 475.31245 84.68751 69.06251 c 0,-21.64063 -17.4219,-39.0625 -39.0625,-39.0625 h -15.625 -390.625 z"
       style="fill:#dfdfdf" />
  </g>
  <g
     transform="translate(-675,-29.000019)"
     id="yellow-notes">
    <rect
       id="rect36"
       y="29"
       x="1703"
       height="514"
       width="514"
       style="opacity:0.001" />
    <path
       id="path38"
       d="m 1748.2188,35.000019 c -21.7272,0 -39.2188,17.491563 -39.2188,39.218746 V 89.906261 482.09371 497.78125 C 1709,519.50843 1726.4916,537 1748.2188,537 h 15.6874 392.1875 15.6875 C 2193.5084,537 2211,519.50843 2211,497.78125 V 482.09371 89.906261 74.218765 c 0,-21.727183 -17.4916,-39.218746 -39.2188,-39.218746 h -15.6875 -392.1875 z"
       style="opacity:0.02" />
    <path
       id="path40"
       d="m 1747.375,34.000019 c -21.8138,0 -39.375,17.561251 -39.375,39.374996 V 89.125011 482.87496 498.625 c 0,21.81374 17.5612,39.375 39.375,39.375 h 15.75 393.75 15.75 C 2194.4387,538 2212,520.43874 2212,498.625 V 482.87496 89.125011 73.375015 c 0,-21.813745 -17.5613,-39.374996 -39.375,-39.374996 h -15.75 -393.75 z"
       style="opacity:0.02" />
    <path
       id="path42"
       d="m 1746.5313,33.000019 c -21.9004,0 -39.5313,17.630939 -39.5313,39.531246 V 88.343761 483.65621 499.46875 C 1707,521.36905 1724.6309,539 1746.5313,539 h 15.8124 395.3125 15.8125 C 2195.3691,539 2213,521.36905 2213,499.46875 V 483.65621 88.343761 72.531265 c 0,-21.900307 -17.6309,-39.531246 -39.5313,-39.531246 h -15.8125 -395.3125 z"
       style="opacity:0.02" />
    <path
       id="path44"
       d="m 1745.6875,32.000019 c -21.9869,0 -39.6875,17.700627 -39.6875,39.687496 V 87.562511 484.43746 500.3125 c 0,21.98686 17.7006,39.6875 39.6875,39.6875 h 15.875 396.875 15.875 C 2196.2994,540 2214,522.29936 2214,500.3125 V 484.43746 87.562511 71.687515 c 0,-21.986869 -17.7006,-39.687496 -39.6875,-39.687496 h -15.875 -396.875 z"
       style="opacity:0.02" />
    <path
       id="path46"
       d="m 1744.8438,31.000019 c -22.0735,0 -39.8438,17.770315 -39.8438,39.843746 V 86.781261 485.21871 501.15625 C 1705,523.22967 1722.7703,541 1744.8438,541 h 15.9374 398.4375 15.9375 C 2197.2297,541 2215,523.22967 2215,501.15625 V 485.21871 86.781261 70.843765 c 0,-22.073431 -17.7703,-39.843746 -39.8438,-39.843746 h -15.9375 -398.4375 z"
       style="opacity:0.02" />
    <path
       id="path48"
       d="m 1744,30.000019 c -22.16,0 -40,17.840003 -40,39.999996 V 86.000011 485.99996 502 c 0,22.15998 17.84,40 40,40 h 16 400 16 c 22.16,0 40,-17.84002 40,-40 V 485.99996 86.000011 70.000015 c 0,-22.159993 -17.84,-39.999996 -40,-39.999996 h -16 -400 z"
       style="opacity:0.02" />
    <path
       id="path50"
       d="m 1749.0625,30.00001 c -21.6406,0 -39.0625,17.42187 -39.0625,39.0625 v 15.625 390.62494 15.62504 c 0,21.64062 17.4219,39.0625 39.0625,39.0625 h 15.625 390.625 15.625 c 21.6406,0 39.0625,-17.42188 39.0625,-39.0625 V 475.31245 84.68751 69.06251 c 0,-21.64063 -17.4219,-39.0625 -39.0625,-39.0625 h -15.625 -390.625 z"
       style="fill:#ffca28" />
  </g>
  <g
     transform="translate(-161,-29.000019)"
     id="red-notes">
    <rect
       id="rect53"
       y="29"
       x="1703"
       height="514"
       width="514"
       style="opacity:0.001" />
    <path
       id="path55"
       d="m 1748.2188,35.000019 c -21.7272,0 -39.2188,17.491563 -39.2188,39.218746 V 89.906261 482.09371 497.78125 C 1709,519.50843 1726.4916,537 1748.2188,537 h 15.6874 392.1875 15.6875 C 2193.5084,537 2211,519.50843 2211,497.78125 V 482.09371 89.906261 74.218765 c 0,-21.727183 -17.4916,-39.218746 -39.2188,-39.218746 h -15.6875 -392.1875 z"
       style="opacity:0.02" />
    <path
       id="path57"
       d="m 1747.375,34.000019 c -21.8138,0 -39.375,17.561251 -39.375,39.374996 V 89.125011 482.87496 498.625 c 0,21.81374 17.5612,39.375 39.375,39.375 h 15.75 393.75 15.75 C 2194.4387,538 2212,520.43874 2212,498.625 V 482.87496 89.125011 73.375015 c 0,-21.813745 -17.5613,-39.374996 -39.375,-39.374996 h -15.75 -393.75 z"
       style="opacity:0.02" />
    <path
       id="path59"
       d="m 1746.5313,33.000019 c -21.9004,0 -39.5313,17.630939 -39.5313,39.531246 V 88.343761 483.65621 499.46875 C 1707,521.36905 1724.6309,539 1746.5313,539 h 15.8124 395.3125 15.8125 C 2195.3691,539 2213,521.36905 2213,499.46875 V 483.65621 88.343761 72.531265 c 0,-21.900307 -17.6309,-39.531246 -39.5313,-39.531246 h -15.8125 -395.3125 z"
       style="opacity:0.02" />
    <path
       id="path61"
       d="m 1745.6875,32.000019 c -21.9869,0 -39.6875,17.700627 -39.6875,39.687496 V 87.562511 484.43746 500.3125 c 0,21.98686 17.7006,39.6875 39.6875,39.6875 h 15.875 396.875 15.875 C 2196.2994,540 2214,522.29936 2214,500.3125 V 484.43746 87.562511 71.687515 c 0,-21.986869 -17.7006,-39.687496 -39.6875,-39.687496 h -15.875 -396.875 z"
       style="opacity:0.02" />
    <path
       id="path63"
       d="m 1744.8438,31.000019 c -22.0735,0 -39.8438,17.770315 -39.8438,39.843746 V 86.781261 485.21871 501.15625 C 1705,523.22967 1722.7703,541 1744.8438,541 h 15.9374 398.4375 15.9375 C 2197.2297,541 2215,523.22967 2215,501.15625 V 485.21871 86.781261 70.843765 c 0,-22.073431 -17.7703,-39.843746 -39.8438,-39.843746 h -15.9375 -398.4375 z"
       style="opacity:0.02" />
    <path
       id="path65"
       d="m 1744,30.000019 c -22.16,0 -40,17.840003 -40,39.999996 V 86.000011 485.99996 502 c 0,22.15998 17.84,40 40,40 h 16 400 16 c 22.16,0 40,-17.84002 40,-40 V 485.99996 86.000011 70.000015 c 0,-22.159993 -17.84,-39.999996 -40,-39.999996 h -16 -400 z"
       style="opacity:0.02" />
    <path
       id="path67"
       d="m 1749.0625,30.00001 c -21.6406,0 -39.0625,17.42187 -39.0625,39.0625 v 15.625 390.62494 15.62504 c 0,21.64062 17.4219,39.0625 39.0625,39.0625 h 15.625 390.625 15.625 c 21.6406,0 39.0625,-17.42188 39.0625,-39.0625 V 475.31245 84.68751 69.06251 c 0,-21.64063 -17.4219,-39.0625 -39.0625,-39.0625 h -15.625 -390.625 z"
       style="fill:#ef5350" />
  </g>
  <g
     transform="translate(353,-29.000019)"
     id="orange-notes">
    <rect
       id="rect70"
       y="29"
       x="1703"
       height="514"
       width="514"
       style="opacity:0.001" />
    <path
       id="path72"
       d="m 1748.2188,35.000019 c -21.7272,0 -39.2188,17.491563 -39.2188,39.218746 V 89.906261 482.09371 497.78125 C 1709,519.50843 1726.4916,537 1748.2188,537 h 15.6874 392.1875 15.6875 C 2193.5084,537 2211,519.50843 2211,497.78125 V 482.09371 89.906261 74.218765 c 0,-21.727183 -17.4916,-39.218746 -39.2188,-39.218746 h -15.6875 -392.1875 z"
       style="opacity:0.02" />
    <path
       id="path74"
       d="m 1747.375,34.000019 c -21.8138,0 -39.375,17.561251 -39.375,39.374996 V 89.125011 482.87496 498.625 c 0,21.81374 17.5612,39.375 39.375,39.375 h 15.75 393.75 15.75 C 2194.4387,538 2212,520.43874 2212,498.625 V 482.87496 89.125011 73.375015 c 0,-21.813745 -17.5613,-39.374996 -39.375,-39.374996 h -15.75 -393.75 z"
       style="opacity:0.02" />
    <path
       id="path76"
       d="m 1746.5313,33.000019 c -21.9004,0 -39.5313,17.630939 -39.5313,39.531246 V 88.343761 483.65621 499.46875 C 1707,521.36905 1724.6309,539 1746.5313,539 h 15.8124 395.3125 15.8125 C 2195.3691,539 2213,521.36905 2213,499.46875 V 483.65621 88.343761 72.531265 c 0,-21.900307 -17.6309,-39.531246 -39.5313,-39.531246 h -15.8125 -395.3125 z"
       style="opacity:0.02" />
    <path
       id="path78"
       d="m 1745.6875,32.000019 c -21.9869,0 -39.6875,17.700627 -39.6875,39.687496 V 87.562511 484.43746 500.3125 c 0,21.98686 17.7006,39.6875 39.6875,39.6875 h 15.875 396.875 15.875 C 2196.2994,540 2214,522.29936 2214,500.3125 V 484.43746 87.562511 71.687515 c 0,-21.986869 -17.7006,-39.687496 -39.6875,-39.687496 h -15.875 -396.875 z"
       style="opacity:0.02" />
    <path
       id="path80"
       d="m 1744.8438,31.000019 c -22.0735,0 -39.8438,17.770315 -39.8438,39.843746 V 86.781261 485.21871 501.15625 C 1705,523.22967 1722.7703,541 1744.8438,541 h 15.9374 398.4375 15.9375 C 2197.2297,541 2215,523.22967 2215,501.15625 V 485.21871 86.781261 70.843765 c 0,-22.073431 -17.7703,-39.843746 -39.8438,-39.843746 h -15.9375 -398.4375 z"
       style="opacity:0.02" />
    <path
       id="path82"
       d="m 1744,30.000019 c -22.16,0 -40,17.840003 -40,39.999996 V 86.000011 485.99996 502 c 0,22.15998 17.84,40 40,40 h 16 400 16 c 22.16,0 40,-17.84002 40,-40 V 485.99996 86.000011 70.000015 c 0,-22.159993 -17.84,-39.999996 -40,-39.999996 h -16 -400 z"
       style="opacity:0.02" />
    <path
       id="path84"
       d="m 1749.0625,30.00001 c -21.6406,0 -39.0625,17.42187 -39.0625,39.0625 v 15.625 390.62494 15.62504 c 0,21.64062 17.4219,39.0625 39.0625,39.0625 h 15.625 390.625 15.625 c 21.6406,0 39.0625,-17.42188 39.0625,-39.0625 V 475.31245 84.68751 69.06251 c 0,-21.64063 -17.4219,-39.0625 -39.0625,-39.0625 h -15.625 -390.625 z"
       style="fill:#ff9800" />
  </g>
  <g
     transform="translate(867,-29.000038)"
     id="green-notes">
    <rect
       id="rect87"
       y="29"
       x="1703"
       height="514"
       width="514"
       style="opacity:0.001" />
    <path
       id="path89"
       d="m 1748.2188,35.000019 c -21.7272,0 -39.2188,17.491563 -39.2188,39.218746 V 89.906261 482.09371 497.78125 C 1709,519.50843 1726.4916,537 1748.2188,537 h 15.6874 392.1875 15.6875 C 2193.5084,537 2211,519.50843 2211,497.78125 V 482.09371 89.906261 74.218765 c 0,-21.727183 -17.4916,-39.218746 -39.2188,-39.218746 h -15.6875 -392.1875 z"
       style="opacity:0.02" />
    <path
       id="path91"
       d="m 1747.375,34.000019 c -21.8138,0 -39.375,17.561251 -39.375,39.374996 V 89.125011 482.87496 498.625 c 0,21.81374 17.5612,39.375 39.375,39.375 h 15.75 393.75 15.75 C 2194.4387,538 2212,520.43874 2212,498.625 V 482.87496 89.125011 73.375015 c 0,-21.813745 -17.5613,-39.374996 -39.375,-39.374996 h -15.75 -393.75 z"
       style="opacity:0.02" />
    <path
       id="path93"
       d="m 1746.5313,33.000019 c -21.9004,0 -39.5313,17.630939 -39.5313,39.531246 V 88.343761 483.65621 499.46875 C 1707,521.36905 1724.6309,539 1746.5313,539 h 15.8124 395.3125 15.8125 C 2195.3691,539 2213,521.36905 2213,499.46875 V 483.65621 88.343761 72.531265 c 0,-21.900307 -17.6309,-39.531246 -39.5313,-39.531246 h -15.8125 -395.3125 z"
       style="opacity:0.02" />
    <path
       id="path95"
       d="m 1745.6875,32.000019 c -21.9869,0 -39.6875,17.700627 -39.6875,39.687496 V 87.562511 484.43746 500.3125 c 0,21.98686 17.7006,39.6875 39.6875,39.6875 h 15.875 396.875 15.875 C 2196.2994,540 2214,522.29936 2214,500.3125 V 484.43746 87.562511 71.687515 c 0,-21.986869 -17.7006,-39.687496 -39.6875,-39.687496 h -15.875 -396.875 z"
       style="opacity:0.02" />
    <path
       id="path97"
       d="m 1744.8438,31.000019 c -22.0735,0 -39.8438,17.770315 -39.8438,39.843746 V 86.781261 485.21871 501.15625 C 1705,523.22967 1722.7703,541 1744.8438,541 h 15.9374 398.4375 15.9375 C 2197.2297,541 2215,523.22967 2215,501.15625 V 485.21871 86.781261 70.843765 c 0,-22.073431 -17.7703,-39.843746 -39.8438,-39.843746 h -15.9375 -398.4375 z"
       style="opacity:0.02" />
    <path
       id="path99"
       d="m 1744,30.000019 c -22.16,0 -40,17.840003 -40,39.999996 V 86.000011 485.99996 502 c 0,22.15998 17.84,40 40,40 h 16 400 16 c 22.16,0 40,-17.84002 40,-40 V 485.99996 86.000011 70.000015 c 0,-22.159993 -17.84,-39.999996 -40,-39.999996 h -16 -400 z"
       style="opacity:0.02" />
    <path
       id="path101"
       d="m 1749.0625,30.00001 c -21.6406,0 -39.0625,17.42187 -39.0625,39.0625 v 15.625 390.62494 15.62504 c 0,21.64062 17.4219,39.0625 39.0625,39.0625 h 15.625 390.625 15.625 c 21.6406,0 39.0625,-17.42188 39.0625,-39.0625 V 475.31245 84.68751 69.06251 c 0,-21.64063 -17.4219,-39.0625 -39.0625,-39.0625 h -15.625 -390.625 z"
       style="fill:#4caf50" />
  </g>
  <g
     transform="translate(1381,-29.000038)"
     id="blue-notes">
    <rect
       id="rect104"
       y="29"
       x="1703"
       height="514"
       width="514"
       style="opacity:0.001" />
    <path
       id="path106"
       d="m 1748.2188,35.000019 c -21.7272,0 -39.2188,17.491563 -39.2188,39.218746 V 89.906261 482.09371 497.78125 C 1709,519.50843 1726.4916,537 1748.2188,537 h 15.6874 392.1875 15.6875 C 2193.5084,537 2211,519.50843 2211,497.78125 V 482.09371 89.906261 74.218765 c 0,-21.727183 -17.4916,-39.218746 -39.2188,-39.218746 h -15.6875 -392.1875 z"
       style="opacity:0.02" />
    <path
       id="path108"
       d="m 1747.375,34.000019 c -21.8138,0 -39.375,17.561251 -39.375,39.374996 V 89.125011 482.87496 498.625 c 0,21.81374 17.5612,39.375 39.375,39.375 h 15.75 393.75 15.75 C 2194.4387,538 2212,520.43874 2212,498.625 V 482.87496 89.125011 73.375015 c 0,-21.813745 -17.5613,-39.374996 -39.375,-39.374996 h -15.75 -393.75 z"
       style="opacity:0.02" />
    <path
       id="path110"
       d="m 1746.5313,33.000019 c -21.9004,0 -39.5313,17.630939 -39.5313,39.531246 V 88.343761 483.65621 499.46875 C 1707,521.36905 1724.6309,539 1746.5313,539 h 15.8124 395.3125 15.8125 C 2195.3691,539 2213,521.36905 2213,499.46875 V 483.65621 88.343761 72.531265 c 0,-21.900307 -17.6309,-39.531246 -39.5313,-39.531246 h -15.8125 -395.3125 z"
       style="opacity:0.02" />
    <path
       id="path112"
       d="m 1745.6875,32.000019 c -21.9869,0 -39.6875,17.700627 -39.6875,39.687496 V 87.562511 484.43746 500.3125 c 0,21.98686 17.7006,39.6875 39.6875,39.6875 h 15.875 396.875 15.875 C 2196.2994,540 2214,522.29936 2214,500.3125 V 484.43746 87.562511 71.687515 c 0,-21.986869 -17.7006,-39.687496 -39.6875,-39.687496 h -15.875 -396.875 z"
       style="opacity:0.02" />
    <path
       id="path114"
       d="m 1744.8438,31.000019 c -22.0735,0 -39.8438,17.770315 -39.8438,39.843746 V 86.781261 485.21871 501.15625 C 1705,523.22967 1722.7703,541 1744.8438,541 h 15.9374 398.4375 15.9375 C 2197.2297,541 2215,523.22967 2215,501.15625 V 485.21871 86.781261 70.843765 c 0,-22.073431 -17.7703,-39.843746 -39.8438,-39.843746 h -15.9375 -398.4375 z"
       style="opacity:0.02" />
    <path
       id="path116"
       d="m 1744,30.000019 c -22.16,0 -40,17.840003 -40,39.999996 V 86.000011 485.99996 502 c 0,22.15998 17.84,40 40,40 h 16 400 16 c 22.16,0 40,-17.84002 40,-40 V 485.99996 86.000011 70.000015 c 0,-22.159993 -17.84,-39.999996 -40,-39.999996 h -16 -400 z"
       style="opacity:0.02" />
    <path
       id="path118"
       d="m 1749.0625,30.00001 c -21.6406,0 -39.0625,17.42187 -39.0625,39.0625 v 15.625 390.62494 15.62504 c 0,21.64062 17.4219,39.0625 39.0625,39.0625 h 15.625 390.625 15.625 c 21.6406,0 39.0625,-17.42188 39.0625,-39.0625 V 475.31245 84.68751 69.06251 c 0,-21.64063 -17.4219,-39.0625 -39.0625,-39.0625 h -15.625 -390.625 z"
       style="fill:#4285f4" />
  </g>
  <g
     transform="translate(1895,-29.000038)"
     id="pink-notes">
    <rect
       id="rect121"
       y="29"
       x="1703"
       height="514"
       width="514"
       style="opacity:0.001" />
    <path
       id="path123"
       d="m 1748.2188,35.000019 c -21.7272,0 -39.2188,17.491563 -39.2188,39.218746 V 89.906261 482.09371 497.78125 C 1709,519.50843 1726.4916,537 1748.2188,537 h 15.6874 392.1875 15.6875 C 2193.5084,537 2211,519.50843 2211,497.78125 V 482.09371 89.906261 74.218765 c 0,-21.727183 -17.4916,-39.218746 -39.2188,-39.218746 h -15.6875 -392.1875 z"
       style="opacity:0.02" />
    <path
       id="path125"
       d="m 1747.375,34.000019 c -21.8138,0 -39.375,17.561251 -39.375,39.374996 V 89.125011 482.87496 498.625 c 0,21.81374 17.5612,39.375 39.375,39.375 h 15.75 393.75 15.75 C 2194.4387,538 2212,520.43874 2212,498.625 V 482.87496 89.125011 73.375015 c 0,-21.813745 -17.5613,-39.374996 -39.375,-39.374996 h -15.75 -393.75 z"
       style="opacity:0.02" />
    <path
       id="path127"
       d="m 1746.5313,33.000019 c -21.9004,0 -39.5313,17.630939 -39.5313,39.531246 V 88.343761 483.65621 499.46875 C 1707,521.36905 1724.6309,539 1746.5313,539 h 15.8124 395.3125 15.8125 C 2195.3691,539 2213,521.36905 2213,499.46875 V 483.65621 88.343761 72.531265 c 0,-21.900307 -17.6309,-39.531246 -39.5313,-39.531246 h -15.8125 -395.3125 z"
       style="opacity:0.02" />
    <path
       id="path129"
       d="m 1745.6875,32.000019 c -21.9869,0 -39.6875,17.700627 -39.6875,39.687496 V 87.562511 484.43746 500.3125 c 0,21.98686 17.7006,39.6875 39.6875,39.6875 h 15.875 396.875 15.875 C 2196.2994,540 2214,522.29936 2214,500.3125 V 484.43746 87.562511 71.687515 c 0,-21.986869 -17.7006,-39.687496 -39.6875,-39.687496 h -15.875 -396.875 z"
       style="opacity:0.02" />
    <path
       id="path131"
       d="m 1744.8438,31.000019 c -22.0735,0 -39.8438,17.770315 -39.8438,39.843746 V 86.781261 485.21871 501.15625 C 1705,523.22967 1722.7703,541 1744.8438,541 h 15.9374 398.4375 15.9375 C 2197.2297,541 2215,523.22967 2215,501.15625 V 485.21871 86.781261 70.843765 c 0,-22.073431 -17.7703,-39.843746 -39.8438,-39.843746 h -15.9375 -398.4375 z"
       style="opacity:0.02" />
    <path
       id="path133"
       d="m 1744,30.000019 c -22.16,0 -40,17.840003 -40,39.999996 V 86.000011 485.99996 502 c 0,22.15998 17.84,40 40,40 h 16 400 16 c 22.16,0 40,-17.84002 40,-40 V 485.99996 86.000011 70.000015 c 0,-22.159993 -17.84,-39.999996 -40,-39.999996 h -16 -400 z"
       style="opacity:0.02" />
    <path
       id="path135"
       d="m 1749.0625,30.00001 c -21.6406,0 -39.0625,17.42187 -39.0625,39.0625 v 15.625 390.62494 15.62504 c 0,21.64062 17.4219,39.0625 39.0625,39.0625 h 15.625 390.625 15.625 c 21.6406,0 39.0625,-17.42188 39.0625,-39.0625 V 475.31245 84.68751 69.06251 c 0,-21.64063 -17.4219,-39.0625 -39.0625,-39.0625 h -15.625 -390.625 z"
       style="fill:#ec407a" />
  </g>
</svg>
