<?xml version="1.0" encoding="UTF-8" standalone="no"?>
<svg
   xmlns:dc="http://purl.org/dc/elements/1.1/"
   xmlns:cc="http://creativecommons.org/ns#"
   xmlns:rdf="http://www.w3.org/1999/02/22-rdf-syntax-ns#"
   xmlns:svg="http://www.w3.org/2000/svg"
   xmlns="http://www.w3.org/2000/svg"
   xmlns:sodipodi="http://sodipodi.sourceforge.net/DTD/sodipodi-0.dtd"
   xmlns:inkscape="http://www.inkscape.org/namespaces/inkscape"
   width="32"
   height="32"
   version="1.1"
   viewBox="0 0 32 32"
   id="svg19"
   sodipodi:docname="applications.svg"
   inkscape:version="0.92.4 5da689c313, 2019-01-14">
  <metadata
     id="metadata23">
    <rdf:RDF>
      <cc:Work
         rdf:about="">
        <dc:format>image/svg+xml</dc:format>
        <dc:type
           rdf:resource="http://purl.org/dc/dcmitype/StillImage" />
        <dc:title></dc:title>
      </cc:Work>
    </rdf:RDF>
  </metadata>
  <sodipodi:namedview
     pagecolor="#c8c8c8"
     bordercolor="#666666"
     borderopacity="1"
     objecttolerance="10"
     gridtolerance="10"
     guidetolerance="10"
     inkscape:pageopacity="0"
     inkscape:pageshadow="2"
     inkscape:window-width="1920"
     inkscape:window-height="1019"
     id="namedview21"
     showgrid="true"
     inkscape:snap-bbox="true"
     inkscape:bbox-nodes="true"
     inkscape:object-paths="true"
     inkscape:snap-intersection-paths="true"
     inkscape:snap-bbox-edge-midpoints="true"
     inkscape:zoom="7.375"
     inkscape:cx="-14.345251"
     inkscape:cy="16.92754"
     inkscape:window-x="0"
     inkscape:window-y="36"
     inkscape:window-maximized="1"
     inkscape:current-layer="svg19">
    <inkscape:grid
       type="xygrid"
       id="grid848" />
  </sodipodi:namedview>
  <defs
     id="defs6">
    <style
       id="current-color-scheme"
       type="text/css">.ColorScheme-Text { color:#dedede; } .ColorScheme-Highlight { color:#5294e2; } .ColorScheme-ButtonBackground { color:#dedede; }</style>
    <filter
       id="a"
       x="-.036"
       y="-.036"
       width="1.072"
       height="1.072"
       color-interpolation-filters="sRGB">
      <feGaussianBlur
         stdDeviation="0.43506"
         id="feGaussianBlur3" />
    </filter>
    <style
       id="style834"
       type="text/css" />
  </defs>
  <g
     id="applications-other">
    <rect
       x="-2.7562999e-07"
       y="-1.2834001e-09"
       width="32"
       height="32"
       rx="0"
       ry="0"
       style="opacity:0;stroke-width:2;paint-order:fill markers stroke"
       id="rect8" />
    <g
       transform="translate(-49.49707,3.6888387)"
       id="g881">
      <path
         inkscape:connector-curvature="0"
         style="color:#000000;overflow:visible;opacity:0.8;fill:#ffffff;fill-opacity:1;stroke-width:1.14285719"
         d="m 58.425781,8.3183594 c -1.025783,0 -2.051264,0.3872015 -2.828125,1.1640625 -1.553722,1.5537221 -1.553722,4.1044811 0,5.6582031 1.553721,1.553722 4.102529,1.553722 5.65625,0 l 1.726563,-1.726563 c 0.597507,-0.597505 0.597507,-1.607572 0,-2.205078 L 61.253906,9.4824219 C 60.477046,8.7055609 59.451564,8.3183594 58.425781,8.3183594 Z M 58.382812,9.3125 a 2.9999999,2.9999999 0 0 1 2.164063,0.878906 l 1.726563,1.72461 c 0.219107,0.219107 0.219107,0.571908 0,0.791015 l -1.726563,1.726563 a 2.9999999,2.9999999 0 0 1 -4.242187,0 2.9999999,2.9999999 0 0 1 0,-4.242188 2.9999999,2.9999999 0 0 1 2.078124,-0.878906 z"
         id="path869" />
      <path
         inkscape:connector-curvature="0"
         style="color:#000000;overflow:visible;opacity:0.8;fill:#ffffff;fill-opacity:1;stroke-width:1.14285719"
         d="m 65.496094,1.2460938 c -1.025783,0 -2.051265,0.3891547 -2.828125,1.1660156 -1.553722,1.5537214 -1.553722,4.102529 0,5.65625 l 1.726562,1.7265625 c 0.597506,0.5975071 1.607572,0.5975071 2.205078,0 l 1.726563,-1.7265625 c 1.553721,-1.553721 1.553721,-4.1025285 0,-5.65625 C 67.549311,1.6352485 66.521877,1.2460937 65.496094,1.2460938 Z m -0.04297,0.9941406 a 2.9999999,2.9999999 0 0 1 2.166016,0.8789062 2.9999999,2.9999999 0 0 1 0,4.2421875 l -1.726563,1.7265625 c -0.219107,0.219107 -0.571909,0.219107 -0.791016,0 L 63.375,7.3613281 a 2.9999999,2.9999999 0 0 1 0,-4.2421875 2.9999999,2.9999999 0 0 1 2.078124,-0.8789062 z"
         id="path867" />
      <path
         inkscape:connector-curvature="0"
         style="color:#000000;overflow:visible;opacity:0.8;fill:#ffffff;fill-opacity:1;stroke-width:1.14285719"
         d="m 65.496094,14.380859 c -0.40167,0 -0.802809,0.148512 -1.101563,0.447266 l -1.726562,1.726563 c -1.553722,1.553721 -1.553722,4.102529 0,5.65625 1.553721,1.55372 4.104481,1.553722 5.658203,0 1.553721,-1.553723 1.553721,-4.10253 0,-5.65625 l -1.726563,-1.726563 c -0.298753,-0.298754 -0.701846,-0.447266 -1.103515,-0.447266 z m 0,0.990235 c 0.142716,0 0.286931,0.05451 0.396484,0.164062 l 1.726563,1.726563 a 2.9999999,2.9999999 0 0 1 0,4.242187 2.9999999,2.9999999 0 0 1 -4.244141,0 2.9999999,2.9999999 0 0 1 0,-4.242187 l 1.726562,-1.726563 c 0.109554,-0.109553 0.251815,-0.164062 0.394532,-0.164062 z"
         id="path861" />
      <path
         inkscape:connector-curvature="0"
         style="color:#000000;overflow:visible;opacity:0.8;fill:#ffffff;fill-opacity:1;stroke-width:1.14285719"
         d="m 72.568359,8.3183594 c -1.025783,0 -2.051264,0.3872015 -2.828125,1.1640625 l -1.726562,1.7265621 c -0.597507,0.597506 -0.597507,1.607573 0,2.205078 l 1.726562,1.726563 c 1.553721,1.553722 4.102528,1.553722 5.65625,0 1.55372,-1.553721 1.55372,-4.104482 0,-5.6582031 C 74.619623,8.7055609 73.594143,8.3183594 72.568359,8.3183594 Z M 72.523438,9.3125 a 2.9999999,2.9999999 0 0 1 2.166015,0.878906 2.9999999,2.9999999 0 0 1 0,4.242188 2.9999999,2.9999999 0 0 1 -4.242187,0 l -1.726563,-1.726563 c -0.219107,-0.219107 -0.219107,-0.571908 0,-0.791015 l 1.726563,-1.72461 A 2.9999999,2.9999999 0 0 1 72.523438,9.3125 Z"
         id="path859" />
    </g>
  </g>
  <g
     id="22-22-applications-other">
    <rect
       id="rect822"
       style="opacity:0;stroke-width:2;paint-order:fill markers stroke"
       ry="0"
       rx="0"
       height="32"
       width="32"
       y="-1.2834001e-09"
       x="-46.532352" />
    <g
       transform="translate(-46.532352)"
       id="g914">
      <rect
         x="-2.7562999e-07"
         y="-1.2834001e-09"
         width="32"
         height="32"
         rx="0"
         ry="0"
         style="opacity:0;stroke-width:2;paint-order:fill markers stroke"
         id="rect902" />
      <g
         transform="translate(-49.49707,3.6888387)"
         id="g912">
        <path
           inkscape:connector-curvature="0"
           style="color:#000000;overflow:visible;opacity:0.8;fill:#ffffff;fill-opacity:1;stroke-width:1.14285719"
           d="m 58.425781,8.3183594 c -1.025783,0 -2.051264,0.3872015 -2.828125,1.1640625 -1.553722,1.5537221 -1.553722,4.1044811 0,5.6582031 1.553721,1.553722 4.102529,1.553722 5.65625,0 l 1.726563,-1.726563 c 0.597507,-0.597505 0.597507,-1.607572 0,-2.205078 L 61.253906,9.4824219 C 60.477046,8.7055609 59.451564,8.3183594 58.425781,8.3183594 Z M 58.382812,9.3125 a 2.9999999,2.9999999 0 0 1 2.164063,0.878906 l 1.726563,1.72461 c 0.219107,0.219107 0.219107,0.571908 0,0.791015 l -1.726563,1.726563 a 2.9999999,2.9999999 0 0 1 -4.242187,0 2.9999999,2.9999999 0 0 1 0,-4.242188 2.9999999,2.9999999 0 0 1 2.078124,-0.878906 z"
           id="path904" />
        <path
           inkscape:connector-curvature="0"
           style="color:#000000;overflow:visible;opacity:0.8;fill:#ffffff;fill-opacity:1;stroke-width:1.14285719"
           d="m 65.496094,1.2460938 c -1.025783,0 -2.051265,0.3891547 -2.828125,1.1660156 -1.553722,1.5537214 -1.553722,4.102529 0,5.65625 l 1.726562,1.7265625 c 0.597506,0.5975071 1.607572,0.5975071 2.205078,0 l 1.726563,-1.7265625 c 1.553721,-1.553721 1.553721,-4.1025285 0,-5.65625 C 67.549311,1.6352485 66.521877,1.2460937 65.496094,1.2460938 Z m -0.04297,0.9941406 a 2.9999999,2.9999999 0 0 1 2.166016,0.8789062 2.9999999,2.9999999 0 0 1 0,4.2421875 l -1.726563,1.7265625 c -0.219107,0.219107 -0.571909,0.219107 -0.791016,0 L 63.375,7.3613281 a 2.9999999,2.9999999 0 0 1 0,-4.2421875 2.9999999,2.9999999 0 0 1 2.078124,-0.8789062 z"
           id="path906" />
        <path
           inkscape:connector-curvature="0"
           style="color:#000000;overflow:visible;opacity:0.8;fill:#ffffff;fill-opacity:1;stroke-width:1.14285719"
           d="m 65.496094,14.380859 c -0.40167,0 -0.802809,0.148512 -1.101563,0.447266 l -1.726562,1.726563 c -1.553722,1.553721 -1.553722,4.102529 0,5.65625 1.553721,1.55372 4.104481,1.553722 5.658203,0 1.553721,-1.553723 1.553721,-4.10253 0,-5.65625 l -1.726563,-1.726563 c -0.298753,-0.298754 -0.701846,-0.447266 -1.103515,-0.447266 z m 0,0.990235 c 0.142716,0 0.286931,0.05451 0.396484,0.164062 l 1.726563,1.726563 a 2.9999999,2.9999999 0 0 1 0,4.242187 2.9999999,2.9999999 0 0 1 -4.244141,0 2.9999999,2.9999999 0 0 1 0,-4.242187 l 1.726562,-1.726563 c 0.109554,-0.109553 0.251815,-0.164062 0.394532,-0.164062 z"
           id="path908" />
        <path
           inkscape:connector-curvature="0"
           style="color:#000000;overflow:visible;opacity:0.8;fill:#ffffff;fill-opacity:1;stroke-width:1.14285719"
           d="m 72.568359,8.3183594 c -1.025783,0 -2.051264,0.3872015 -2.828125,1.1640625 l -1.726562,1.7265621 c -0.597507,0.597506 -0.597507,1.607573 0,2.205078 l 1.726562,1.726563 c 1.553721,1.553722 4.102528,1.553722 5.65625,0 1.55372,-1.553721 1.55372,-4.104482 0,-5.6582031 C 74.619623,8.7055609 73.594143,8.3183594 72.568359,8.3183594 Z M 72.523438,9.3125 a 2.9999999,2.9999999 0 0 1 2.166015,0.878906 2.9999999,2.9999999 0 0 1 0,4.242188 2.9999999,2.9999999 0 0 1 -4.242187,0 l -1.726563,-1.726563 c -0.219107,-0.219107 -0.219107,-0.571908 0,-0.791015 l 1.726563,-1.72461 A 2.9999999,2.9999999 0 0 1 72.523438,9.3125 Z"
           id="path910" />
      </g>
    </g>
  </g>
</svg>
