<?xml version="1.0" encoding="UTF-8" standalone="no"?>
<svg
   xmlns:dc="http://purl.org/dc/elements/1.1/"
   xmlns:cc="http://creativecommons.org/ns#"
   xmlns:rdf="http://www.w3.org/1999/02/22-rdf-syntax-ns#"
   xmlns:svg="http://www.w3.org/2000/svg"
   xmlns="http://www.w3.org/2000/svg"
   xmlns:sodipodi="http://sodipodi.sourceforge.net/DTD/sodipodi-0.dtd"
   xmlns:inkscape="http://www.inkscape.org/namespaces/inkscape"
   width="32"
   height="32"
   version="1.1"
   viewBox="0 0 32 32"
   id="svg19"
   sodipodi:docname="applications.svg"
   inkscape:version="0.92.4 5da689c313, 2019-01-14">
  <metadata
     id="metadata23">
    <rdf:RDF>
      <cc:Work
         rdf:about="">
        <dc:format>image/svg+xml</dc:format>
        <dc:type
           rdf:resource="http://purl.org/dc/dcmitype/StillImage" />
        <dc:title />
      </cc:Work>
    </rdf:RDF>
  </metadata>
  <sodipodi:namedview
     pagecolor="#c8c8c8"
     bordercolor="#666666"
     borderopacity="1"
     objecttolerance="10"
     gridtolerance="10"
     guidetolerance="10"
     inkscape:pageopacity="0"
     inkscape:pageshadow="2"
     inkscape:window-width="1920"
     inkscape:window-height="1023"
     id="namedview21"
     showgrid="true"
     inkscape:snap-bbox="true"
     inkscape:bbox-nodes="true"
     inkscape:object-paths="true"
     inkscape:snap-intersection-paths="true"
     inkscape:snap-bbox-edge-midpoints="true"
     inkscape:zoom="7.375"
     inkscape:cx="-31.903101"
     inkscape:cy="23.075933"
     inkscape:window-x="0"
     inkscape:window-y="32"
     inkscape:window-maximized="1"
     inkscape:current-layer="svg19">
    <inkscape:grid
       type="xygrid"
       id="grid848" />
  </sodipodi:namedview>
  <defs
     id="defs6">
    <style
       id="current-color-scheme"
       type="text/css">.ColorScheme-Text { color:#dedede; } .ColorScheme-Highlight { color:#5294e2; } .ColorScheme-ButtonBackground { color:#dedede; }</style>
    <filter
       id="a"
       x="-.036"
       y="-.036"
       width="1.072"
       height="1.072"
       color-interpolation-filters="sRGB">
      <feGaussianBlur
         stdDeviation="0.43506"
         id="feGaussianBlur3" />
    </filter>
    <style
       id="style834"
       type="text/css" />
    <style
       type="text/css"
       id="current-color-scheme-5">.ColorScheme-Text { color:#dedede; } .ColorScheme-Highlight { color:#5294e2; } .ColorScheme-ButtonBackground { color:#dedede; }</style>
    <filter
       color-interpolation-filters="sRGB"
       height="1.072"
       width="1.072"
       y="-.036"
       x="-.036"
       id="a-6">
      <feGaussianBlur
         id="feGaussianBlur3-2"
         stdDeviation="0.43506" />
    </filter>
    <style
       type="text/css"
       id="style834-9" />
  </defs>
  <g
     id="applications-other">
    <path
       inkscape:connector-curvature="0"
       id="path899"
       d="M 16,0.96386763 A 15,15 0 0 0 1.0000001,15.963868 15,15 0 0 0 16,30.963867 a 15,15 0 0 0 15,-15 A 15,15 0 0 0 16,0.96386763 Z m 0,3.93554697 c 1.025783,0 2.053217,0.389158 2.830078,1.166015 1.553721,1.553723 1.553721,4.1025294 0,5.6562504 l -1.726562,1.726563 c -0.597506,0.597507 -1.607574,0.597507 -2.205078,0 L 13.171875,11.72168 c -1.553722,-1.553721 -1.553722,-4.1025254 0,-5.6562504 C 13.948735,5.2885706 14.974217,4.8994146 16,4.8994146 Z m -0.04297,0.994141 a 2.9999999,2.9999999 0 0 0 -2.078125,0.878906 2.9999999,2.9999999 0 0 0 0,4.2421874 l 1.72461,1.726563 c 0.219107,0.219107 0.573861,0.219107 0.792968,0 l 1.726563,-1.726563 a 2.9999999,2.9999999 0 0 0 0,-4.2421874 2.9999999,2.9999999 0 0 0 -2.166016,-0.878906 z M 8.9296871,11.97168 c 1.025782,0 2.0512649,0.387202 2.8281239,1.164063 l 1.726563,1.726563 c 0.597507,0.597506 0.597507,1.607572 0,2.205078 l -1.726562,1.726562 c -1.55372,1.553722 -4.1025279,1.553722 -5.6562499,0 -1.553721,-1.553722 -1.553722,-4.104481 0,-5.658203 0.776861,-0.776861 1.802343,-1.164063 2.828125,-1.164063 z m 14.1425779,0 c 1.025784,0 2.051264,0.387202 2.828125,1.164063 1.55372,1.553721 1.55372,4.104481 0,5.658202 -1.553722,1.553722 -4.102529,1.553722 -5.65625,0 l -1.726563,-1.726562 c -0.597507,-0.597505 -0.597507,-1.607574 0,-2.205078 l 1.726563,-1.726562 c 0.776861,-0.776861 1.802342,-1.164063 2.828125,-1.164063 z M 8.8847661,12.965821 a 2.9999999,2.9999999 0 0 0 -2.076172,0.878906 2.9999999,2.9999999 0 0 0 0,4.242188 2.9999999,2.9999999 0 0 0 4.2421869,0 l 1.726563,-1.726564 c 0.219107,-0.219106 0.219107,-0.571907 0,-0.791014 l -1.726563,-1.72461 A 2.9999999,2.9999999 0 0 0 8.8847661,12.965821 Z m 14.1425779,0 a 2.9999999,2.9999999 0 0 0 -2.076172,0.878906 l -1.726563,1.72461 c -0.219107,0.219107 -0.219107,0.571908 0,0.791014 l 1.726563,1.726564 a 2.9999999,2.9999999 0 0 0 4.242187,0 2.9999999,2.9999999 0 0 0 0,-4.242188 2.9999999,2.9999999 0 0 0 -2.166015,-0.878906 z M 16,18.034179 c 0.401669,0 0.804763,0.148512 1.103516,0.447266 l 1.726562,1.726563 c 1.553721,1.55372 1.553721,4.102527 0,5.65625 -1.553722,1.553722 -4.104482,1.55372 -5.658203,0 -1.553722,-1.553721 -1.553722,-4.102529 0,-5.65625 l 1.726563,-1.726563 C 15.19719,18.182691 15.59833,18.034179 16,18.034179 Z m 0,0.990235 c -0.142717,0 -0.284977,0.05451 -0.394531,0.164062 l -1.726563,1.726563 a 2.9999999,2.9999999 0 0 0 0,4.242187 2.9999999,2.9999999 0 0 0 4.244141,0 2.9999999,2.9999999 0 0 0 0,-4.242187 L 16.396484,19.188476 C 16.286931,19.078924 16.142716,19.024415 16,19.024414 Z"
       style="opacity:1;fill:#eaeaea;fill-opacity:1;stroke:none;stroke-width:7.19999981;stroke-linecap:round;stroke-miterlimit:4;stroke-dasharray:none;stroke-opacity:1" />
    <rect
       x="0"
       y="-0.036132436"
       width="32"
       height="32"
       rx="0"
       ry="0"
       style="opacity:0;stroke-width:2;paint-order:fill markers stroke"
       id="rect8" />
  </g>
  <g
     id="22-22-applications-other"
     transform="translate(-44.060279)">
    <path
       style="opacity:1;fill:#eaeaea;fill-opacity:1;stroke:none;stroke-width:7.19999981;stroke-linecap:round;stroke-miterlimit:4;stroke-dasharray:none;stroke-opacity:1"
       d="M 16,0.96386763 A 15,15 0 0 0 1.0000001,15.963868 15,15 0 0 0 16,30.963867 a 15,15 0 0 0 15,-15 A 15,15 0 0 0 16,0.96386763 Z m 0,3.93554697 c 1.025783,0 2.053217,0.389158 2.830078,1.166015 1.553721,1.553723 1.553721,4.1025294 0,5.6562504 l -1.726562,1.726563 c -0.597506,0.597507 -1.607574,0.597507 -2.205078,0 L 13.171875,11.72168 c -1.553722,-1.553721 -1.553722,-4.1025254 0,-5.6562504 C 13.948735,5.2885706 14.974217,4.8994146 16,4.8994146 Z m -0.04297,0.994141 a 2.9999999,2.9999999 0 0 0 -2.078125,0.878906 2.9999999,2.9999999 0 0 0 0,4.2421874 l 1.72461,1.726563 c 0.219107,0.219107 0.573861,0.219107 0.792968,0 l 1.726563,-1.726563 a 2.9999999,2.9999999 0 0 0 0,-4.2421874 2.9999999,2.9999999 0 0 0 -2.166016,-0.878906 z M 8.9296871,11.97168 c 1.025782,0 2.0512649,0.387202 2.8281239,1.164063 l 1.726563,1.726563 c 0.597507,0.597506 0.597507,1.607572 0,2.205078 l -1.726562,1.726562 c -1.55372,1.553722 -4.1025279,1.553722 -5.6562499,0 -1.553721,-1.553722 -1.553722,-4.104481 0,-5.658203 0.776861,-0.776861 1.802343,-1.164063 2.828125,-1.164063 z m 14.1425779,0 c 1.025784,0 2.051264,0.387202 2.828125,1.164063 1.55372,1.553721 1.55372,4.104481 0,5.658202 -1.553722,1.553722 -4.102529,1.553722 -5.65625,0 l -1.726563,-1.726562 c -0.597507,-0.597505 -0.597507,-1.607574 0,-2.205078 l 1.726563,-1.726562 c 0.776861,-0.776861 1.802342,-1.164063 2.828125,-1.164063 z M 8.8847661,12.965821 a 2.9999999,2.9999999 0 0 0 -2.076172,0.878906 2.9999999,2.9999999 0 0 0 0,4.242188 2.9999999,2.9999999 0 0 0 4.2421869,0 l 1.726563,-1.726564 c 0.219107,-0.219106 0.219107,-0.571907 0,-0.791014 l -1.726563,-1.72461 A 2.9999999,2.9999999 0 0 0 8.8847661,12.965821 Z m 14.1425779,0 a 2.9999999,2.9999999 0 0 0 -2.076172,0.878906 l -1.726563,1.72461 c -0.219107,0.219107 -0.219107,0.571908 0,0.791014 l 1.726563,1.726564 a 2.9999999,2.9999999 0 0 0 4.242187,0 2.9999999,2.9999999 0 0 0 0,-4.242188 2.9999999,2.9999999 0 0 0 -2.166015,-0.878906 z M 16,18.034179 c 0.401669,0 0.804763,0.148512 1.103516,0.447266 l 1.726562,1.726563 c 1.553721,1.55372 1.553721,4.102527 0,5.65625 -1.553722,1.553722 -4.104482,1.55372 -5.658203,0 -1.553722,-1.553721 -1.553722,-4.102529 0,-5.65625 l 1.726563,-1.726563 C 15.19719,18.182691 15.59833,18.034179 16,18.034179 Z m 0,0.990235 c -0.142717,0 -0.284977,0.05451 -0.394531,0.164062 l -1.726563,1.726563 a 2.9999999,2.9999999 0 0 0 0,4.242187 2.9999999,2.9999999 0 0 0 4.244141,0 2.9999999,2.9999999 0 0 0 0,-4.242187 L 16.396484,19.188476 C 16.286931,19.078924 16.142716,19.024415 16,19.024414 Z"
       id="path924"
       inkscape:connector-curvature="0" />
    <rect
       id="rect926"
       style="opacity:0;stroke-width:2;paint-order:fill markers stroke"
       ry="0"
       rx="0"
       height="32"
       width="32"
       y="-0.036132436"
       x="0" />
  </g>
</svg>
