<?xml version="1.0" encoding="UTF-8" standalone="no"?>
<svg
   xmlns:dc="http://purl.org/dc/elements/1.1/"
   xmlns:cc="http://creativecommons.org/ns#"
   xmlns:rdf="http://www.w3.org/1999/02/22-rdf-syntax-ns#"
   xmlns:svg="http://www.w3.org/2000/svg"
   xmlns="http://www.w3.org/2000/svg"
   xmlns:sodipodi="http://sodipodi.sourceforge.net/DTD/sodipodi-0.dtd"
   xmlns:inkscape="http://www.inkscape.org/namespaces/inkscape"
   width="32"
   height="32"
   version="1.1"
   id="svg19"
   sodipodi:docname="bookmarks.svg"
   inkscape:version="0.92.4 5da689c313, 2019-01-14">
  <metadata
     id="metadata23">
    <rdf:RDF>
      <cc:Work
         rdf:about="">
        <dc:format>image/svg+xml</dc:format>
        <dc:type
           rdf:resource="http://purl.org/dc/dcmitype/StillImage" />
        <dc:title />
      </cc:Work>
    </rdf:RDF>
  </metadata>
  <sodipodi:namedview
     pagecolor="#c8c8c8"
     bordercolor="#666666"
     borderopacity="1"
     objecttolerance="10"
     gridtolerance="10"
     guidetolerance="10"
     inkscape:pageopacity="0"
     inkscape:pageshadow="2"
     inkscape:window-width="1920"
     inkscape:window-height="1023"
     id="namedview21"
     showgrid="true"
     inkscape:zoom="4.0000002"
     inkscape:cx="-24.594495"
     inkscape:cy="33.705957"
     inkscape:window-x="0"
     inkscape:window-y="32"
     inkscape:window-maximized="1"
     inkscape:current-layer="svg19"
     inkscape:snap-bbox="true"
     inkscape:snap-bbox-edge-midpoints="true"
     inkscape:bbox-nodes="true">
    <inkscape:grid
       type="xygrid"
       id="grid819" />
  </sodipodi:namedview>
  <defs
     id="defs6">
    <style
       id="current-color-scheme"
       type="text/css">.ColorScheme-Text { color:#dedede; } .ColorScheme-Highlight { color:#5294e2; } .ColorScheme-ButtonBackground { color:#dedede; }</style>
    <filter
       id="a"
       x="-.036"
       y="-.036"
       width="1.072"
       height="1.072"
       color-interpolation-filters="sRGB">
      <feGaussianBlur
         stdDeviation="0.43506"
         id="feGaussianBlur3" />
    </filter>
    <style
       id="style835"
       type="text/css" />
    <style
       type="text/css"
       id="current-color-scheme-5">.ColorScheme-Text { color:#dedede; } .ColorScheme-Highlight { color:#5294e2; } .ColorScheme-ButtonBackground { color:#dedede; }</style>
    <filter
       color-interpolation-filters="sRGB"
       height="1.072"
       width="1.072"
       y="-.036"
       x="-.036"
       id="a-6">
      <feGaussianBlur
         id="feGaussianBlur3-2"
         stdDeviation="0.43506" />
    </filter>
    <style
       type="text/css"
       id="style835-9" />
  </defs>
  <g
     id="bookmarks">
    <rect
       x="0"
       y="0"
       width="32"
       height="32"
       rx="0"
       ry="0"
       style="opacity:0;stroke-width:2;paint-order:fill markers stroke"
       id="rect8" />
    <path
       inkscape:connector-curvature="0"
       id="path841"
       d="M 16,1 A 15,15 0 0 0 1,16 15,15 0 0 0 16,31 15,15 0 0 0 31,16 15,15 0 0 0 16,1 Z m -3.535156,6 c 1.323249,0 2.512405,0.496678 3.541015,1.337891 C 17.033271,7.502498 18.231149,7 19.544922,7 c 0.0048,0 0.0088,0.002 0.01367,0.002 V 7 h 0.002 v 0.0039 c 3.478803,0.0095 6.289062,2.978501 6.289062,6.595703 0,2.120289 -0.977111,3.613133 -1.630859,4.613282 h -0.002 c -1.63898,2.501169 -4.84808,4.956793 -6.628906,6.228515 h -0.002 v 0.002 c -0.02501,0.01759 -0.0495,0.03473 -0.07422,0.05273 l -0.0039,0.002 -0.02539,0.01758 -0.0039,0.0039 c -0.437624,0.309788 -0.953138,0.479663 -1.480468,0.480469 h -0.002 c -0.551763,0.0019 -1.090289,-0.17762 -1.527344,-0.511719 l -0.06836,-0.04687 v -0.002 C 12.618609,23.169616 9.409589,20.721202 7.785072,18.218787 7.127617,17.214089 6.150306,15.721584 6.150307,13.599646 6.150306,9.977832 8.973148,7.000037 12.46476,7.000037 Z m 0,1 c -2.922733,0 -5.314454,2.494907 -5.314453,5.599609 0,1.818414 0.815186,3.065553 1.472656,4.070313 v 0.002 c 1.453222,2.239219 4.614459,4.71085 6.357422,5.953125 l 0.08984,0.0625 0.0059,0.0059 c 0.260275,0.198904 0.583298,0.308041 0.916015,0.306641 h 0.002 c 0.316985,0 0.627234,-0.09928 0.90625,-0.296875 l 0.01562,-0.01172 h 0.002 c 0.02924,-0.02132 0.05831,-0.04359 0.08789,-0.06445 1.742318,-1.244222 4.905432,-3.718296 6.375,-5.960937 0.653953,-1.000462 1.46875,-2.249918 1.46875,-4.066407 -9.9e-5,-3.107083 -2.387817,-5.599609 -5.304687,-5.599609 -1.206355,0 -2.276368,0.43088 -3.199219,1.289062 l -0.341922,0.31827 -0.339844,-0.31836 C 14.734286,8.420075 13.688589,8 12.464844,8 Z"
       style="opacity:1;fill:#eaeaea;fill-opacity:1;stroke:none;stroke-width:9;stroke-linecap:round;stroke-miterlimit:4;stroke-dasharray:none;stroke-opacity:1" />
  </g>
</svg>
