<?xml version="1.0" encoding="UTF-8" standalone="no"?>
<svg
   xmlns:dc="http://purl.org/dc/elements/1.1/"
   xmlns:cc="http://creativecommons.org/ns#"
   xmlns:rdf="http://www.w3.org/1999/02/22-rdf-syntax-ns#"
   xmlns:svg="http://www.w3.org/2000/svg"
   xmlns="http://www.w3.org/2000/svg"
   xmlns:sodipodi="http://sodipodi.sourceforge.net/DTD/sodipodi-0.dtd"
   xmlns:inkscape="http://www.inkscape.org/namespaces/inkscape"
   id="svg2"
   width="32"
   height="32"
   version="1.1"
   viewBox="0 0 32 32"
   sodipodi:docname="system.svg"
   inkscape:version="0.92.4 5da689c313, 2019-01-14">
  <metadata
     id="metadata59">
    <rdf:RDF>
      <cc:Work
         rdf:about="">
        <dc:format>image/svg+xml</dc:format>
        <dc:type
           rdf:resource="http://purl.org/dc/dcmitype/StillImage" />
        <dc:title />
      </cc:Work>
    </rdf:RDF>
  </metadata>
  <sodipodi:namedview
     pagecolor="#c8c8c8"
     bordercolor="#666666"
     borderopacity="1"
     objecttolerance="10"
     gridtolerance="10"
     guidetolerance="10"
     inkscape:pageopacity="0"
     inkscape:pageshadow="2"
     inkscape:window-width="1920"
     inkscape:window-height="1023"
     id="namedview57"
     showgrid="true"
     inkscape:zoom="1.9999999"
     inkscape:cx="75.880628"
     inkscape:cy="52.883308"
     inkscape:window-x="0"
     inkscape:window-y="32"
     inkscape:window-maximized="1"
     inkscape:current-layer="svg2"
     inkscape:snap-bbox="true"
     inkscape:bbox-nodes="true"
     inkscape:snap-nodes="true"
     inkscape:snap-smooth-nodes="true"
     inkscape:snap-global="true">
    <inkscape:grid
       type="xygrid"
       id="grid862" />
  </sodipodi:namedview>
  <defs
     id="defs87">
    <style
       id="current-color-scheme"
       type="text/css">
   .ColorScheme-Text { color:#dedede; } .ColorScheme-Highlight { color:#5294e2; } .ColorScheme-ButtonBackground { color:#dedede; }
  </style>
    <style
       id="current-color-scheme-6"
       type="text/css" />
    <linearGradient
       id="a">
      <stop
         id="stop945"
         stop-color="#fff"
         offset="0" />
      <stop
         id="stop947"
         stop-opacity=".235"
         stop-color="#fff"
         offset=".508" />
      <stop
         id="stop949"
         stop-opacity=".157"
         stop-color="#fff"
         offset=".835" />
      <stop
         id="stop951"
         stop-opacity=".392"
         stop-color="#fff"
         offset="1" />
    </linearGradient>
    <linearGradient
       id="c">
      <stop
         id="stop954"
         stop-color="#3d3d3d"
         offset="0" />
      <stop
         id="stop956"
         stop-opacity=".498"
         stop-color="#686868"
         offset=".5" />
      <stop
         id="stop958"
         stop-opacity="0"
         stop-color="#686868"
         offset="1" />
    </linearGradient>
    <linearGradient
       id="b">
      <stop
         id="stop961"
         stop-color="#919caf"
         offset="0" />
      <stop
         id="stop963"
         stop-color="#68758e"
         offset=".262" />
      <stop
         id="stop965"
         stop-color="#485a6c"
         offset=".705" />
      <stop
         id="stop967"
         stop-color="#444c5c"
         offset="1" />
    </linearGradient>
    <style
       id="style924"
       type="text/css" />
  </defs>
  <g
     id="22-22-system-suspend"
     transform="translate(-21.999999,-988.36218)">
    <rect
       id="rect4222"
       width="22"
       height="22"
       x="0"
       y="1030.36"
       style="opacity:0.001;fill:currentColor;fill-opacity:1;stroke:none;stroke-width:2;stroke-linecap:round;stroke-linejoin:round;stroke-miterlimit:4;stroke-dasharray:none;stroke-opacity:1" />
    <g
       id="g4380"
       transform="matrix(1.0009385,0,0,0.99883233,-322.31608,1012.4029)"
       style="display:inline;opacity:1;fill:currentColor;fill-opacity:1">
      <path
         id="path4398"
         class="ColorScheme-Text"
         d="M 8.0449219,2 C 5.4709885,1.9800034 3.1612109,3.6075004 2.3203125,6.0351562 2.0969331,6.6800174 1.9985687,7.3426625 2,8 1.9989991,8.6573375 2.0969831,9.3199826 2.3203125,9.9648438 3.1612109,12.3925 5.4709885,14.02 8.0449219,14 10.618845,13.980003 12.900212,12.315429 13.703125,9.875 13.906195,9.2577756 14.001361,8.6263907 14,8 14.001001,7.3736093 13.906205,6.7422244 13.703125,6.125 12.900212,3.684571 10.618845,2.0199966 8.0449219,2 Z M 8.0292969,3.9980469 C 9.7515617,4.0114312 11.263538,5.1131547 11.800781,6.7460938 11.936599,7.1589011 12.00029,7.582557 12,8 12.00029,8.417443 11.936639,8.8410989 11.800781,9.2539062 11.263538,10.886845 9.7515617,11.988573 8.0292969,12.001953 6.307032,12.015337 4.7736051,10.936893 4.2109375,9.3125 4.0615674,8.8812761 3.9955932,8.4378711 3.9960938,8 3.9955932,7.5621289 4.0615574,7.1187239 4.2109375,6.6875 4.7736051,5.0631071 6.307032,3.9846625 8.0292969,3.9980469 Z M 5.8554688,7 C 5.3807835,7 5,7.446 5,8 5,8.554 5.3807835,9 5.8554688,9 L 10.142578,9 C 10.61726,9 11,8.554 11,8 11,7.446 10.61726,7 10.142578,7 L 5.8554688,7 Z"
         transform="matrix(0.99906238,0,0,1.001169,325.01106,20.983802)"
         style="fill:#eaeaea;fill-opacity:1" />
    </g>
  </g>
  <g
     id="22-22-system-switch-user"
     transform="translate(1e-6,-988.36218)">
    <rect
       id="rect4220"
       width="22"
       height="22"
       x="0"
       y="1030.36"
       style="opacity:0.001;fill:currentColor;fill-opacity:1;stroke:none;stroke-width:2;stroke-linecap:round;stroke-linejoin:round;stroke-miterlimit:4;stroke-dasharray:none;stroke-opacity:1" />
    <path
       id="path4481"
       class="ColorScheme-Text"
       d="m 10.9943,1035.362 c -1.8700303,0 -3.3939153,1.5345 -3.4492153,3.4512 -0.0459,0.012 -0.0915,0.033 -0.13476,0.055 -0.43005,0.227 -0.54034,0.9343 -0.2461,1.5899 0.23672,0.5274 0.65753,0.8538 1.03906,0.8437 0.28723,1.7528 1.430425,3.0606 2.7910153,3.0606 l 0.0117,0 c 1.36059,0 2.5038,-1.3078 2.79102,-3.0606 0.38154,0.01 0.80234,-0.3163 1.03906,-0.8437 0.29424,-0.6556 0.18394,-1.3629 -0.24609,-1.5899 -0.0433,-0.023 -0.0888,-0.044 -0.13477,-0.055 -0.0553,-1.9167 -1.57919,-3.4512 -3.44922,-3.4512 l -0.0117,0 z m 2.40039,8 c -0.28889,0.7005 -1.27408,1.2246 -2.44922,1.2246 -1.1698503,0 -2.1455953,-0.5173 -2.4394453,-1.2129 -2.46908,0.2581 -4.26818,0.8896 -4.48438,1.6367 -0.003,0.01 0.002,0.016 0,0.024 -0.007,0.026 -0.007,0.049 -0.01,0.076 -10e-4,0.012 -0.0117,0.021 -0.0117,0.035 -9e-5,0 0,0.011 0,0.012 l 0,1.8477 c 0,0.1976 0.15571,0.3574 0.34961,0.3574 l 13.3007853,0 c 0.1939,0 0.3496,-0.1598 0.3496,-0.3574 l 0,-1.8477 c 0,-0.01 3.5e-4,-0.015 0,-0.023 -0.002,-0.043 -0.0208,-0.081 -0.0332,-0.123 -0.22075,-0.7563 -2.05842,-1.3964 -4.57226,-1.6484 z"
       style="fill:#eaeaea;fill-opacity:1" />
  </g>
  <g
     id="22-22-system-shutdown"
     transform="translate(-43.999999,-988.36218)">
    <rect
       id="rect4229"
       width="22"
       height="22"
       x="0"
       y="1030.36"
       style="opacity:0.001;fill:currentColor;fill-opacity:1;stroke:none;stroke-width:2;stroke-linecap:round;stroke-linejoin:round;stroke-miterlimit:4;stroke-dasharray:none;stroke-opacity:1" />
    <path
       id="rect4324"
       class="ColorScheme-Text"
       d="m 11.000336,1034.362 c -0.553987,0 -0.99995,0.4462 -0.99995,1 l 0,5.0019 c 0,0.5538 0.445963,0.9981 0.99995,0.9981 0.553988,0 0.99995,-0.4443 0.99995,-0.9981 l 0,-5.0019 c 0,-0.5538 -0.445962,-1 -0.99995,-1 z m 2.939305,1.9902 a 1.000176,0.99982748 0 0 0 -0.542942,1.8086 c 1.377976,1.0304 1.941017,2.8148 1.404226,4.4492 -0.536779,1.6344 -2.050513,2.7386 -3.771293,2.752 -1.7207811,0.013 -3.2501263,-1.0675 -3.8123083,-2.6934 -0.562183,-1.6258 -0.02587,-3.419 1.335869,-4.4707 a 1.000176,0.99982748 0 1 0 -1.222594,-1.582 c -2.035135,1.5718 -2.842036,4.2772 -2.001852,6.707 0.840173,2.4298 3.144793,4.0591 5.7165093,4.0391 2.571705,-0.02 4.853744,-1.6863 5.655965,-4.1289 0.80223,-2.4426 -0.04794,-5.1339 -2.107316,-6.6739 a 1.000176,0.99982748 0 0 0 -0.654264,-0.207 z"
       style="fill:#eaeaea;fill-opacity:1" />
  </g>
  <g
     id="22-22-system-reboot"
     transform="matrix(0,-1,1,0,-1096.3623,64)">
    <rect
       id="rect4235"
       width="22"
       height="22"
       x="0"
       y="1030.36"
       style="opacity:0.001;fill:currentColor;fill-opacity:1;stroke:none;stroke-width:2;stroke-linecap:round;stroke-linejoin:round;stroke-miterlimit:4;stroke-dasharray:none;stroke-opacity:1" />
    <g
       id="layer12"
       transform="matrix(1.0009385,0,0,0.99883233,-322.31609,1012.4029)"
       style="display:inline;opacity:1;fill:currentColor;fill-opacity:1">
      <path
         id="path6796"
         class="ColorScheme-Text"
         d="M 8.0449219,2 C 5.4709885,1.98 3.161211,3.6075002 2.3203125,6.0351562 2.0969411,6.6800174 1.998566,7.342662 2,8 1.998566,8.657338 2.0969411,9.3199826 2.3203125,9.9648438 3.161211,12.3925 5.4709885,14.02 8.0449219,14 10.618845,13.980003 12.900212,12.315429 13.703125,9.875 13.906197,9.2577753 14.001356,8.626391 14,8 14.001356,7.373609 13.906197,6.7422247 13.703125,6.125 12.900212,3.6845712 10.618845,2.019997 8.0449219,2 Z M 8.0292969,3.9980469 C 9.7515617,4.0114279 11.263537,5.1131547 11.800781,6.7460938 11.9366,7.1589017 12.00029,7.5825571 12,8 12.00029,8.4174429 11.936599,8.8410983 11.800781,9.2539062 11.263537,10.886845 9.7515617,11.988572 8.0292969,12.001953 6.307032,12.015337 4.773605,10.936893 4.2109375,9.3125 4.0615674,8.881276 3.995597,8.4378713 3.9960938,8 3.995597,7.5621287 4.0615674,7.118724 4.2109375,6.6875 4.773605,5.0631072 6.307032,3.9846629 8.0292969,3.9980469 Z M 6.4746094,6 A 0.4736353,0.52746185 0 0 0 6.0625,6.7890625 L 7.5898438,9.734375 A 0.4736353,0.52746185 0 0 0 7.9746094,10 0.4736353,0.52746185 0 0 0 8.0234375,10 0.4736353,0.52746185 0 0 0 8.4101562,9.734375 L 9.9375,6.7890625 A 0.4736353,0.52746185 0 0 0 9.5273438,6 L 6.4746094,6 Z"
         transform="matrix(0.99906238,0,0,1.001169,325.01107,20.983802)"
         style="fill:#eaeaea;fill-opacity:1" />
    </g>
  </g>
  <g
     id="22-22-system-log-out"
     transform="matrix(-1,0,0,1,-65.999999,-988.36218)"
     inkscape:label="#22-22-system-log-out">
    <rect
       id="rect4242"
       width="22"
       height="22"
       x="0"
       y="1030.36"
       style="opacity:0.001;fill:currentColor;fill-opacity:1;stroke:none;stroke-width:2;stroke-linecap:round;stroke-linejoin:round;stroke-miterlimit:4;stroke-dasharray:none;stroke-opacity:1" />
    <path
       id="path4360"
       class="ColorScheme-Text"
       d="m 11.475393,1035.3621 a 0.4736353,0.52746183 0 0 0 -0.412109,0.7891 l 1.527343,2.9453 a 0.4736353,0.52746183 0 0 0 0.384766,0.2656 0.4736353,0.52746183 0 0 0 0.04883,0 0.4736353,0.52746183 0 0 0 0.386718,-0.2656 l 0.326172,-0.6289 c 1.12174,1.0534 1.553588,2.6586 1.064453,4.1465 -0.536781,1.6327 -2.050703,2.7366 -3.771484,2.75 -1.7207807,0.013 -3.2503167,-1.0672 -3.8124997,-2.6915 -0.562183,-1.6242 -0.02584,-3.4141 1.335938,-4.4648 a 1.0005526,0.99921387 0 1 0 -1.222657,-1.582 c -2.035134,1.5702 -2.842137,4.2737 -2.001953,6.7011 0.840174,2.4275 3.145082,4.0552 5.7167967,4.0352 2.571705,-0.02 4.854029,-1.6848 5.65625,-4.125 0.789982,-2.4029 -0.02804,-5.0426 -2.019531,-6.5918 l 0.255859,-0.4941 a 0.4736353,0.52746183 0 0 0 -0.410156,-0.7891 l -3.052734,0 z"
       style="fill:#eaeaea;fill-opacity:1" />
  </g>
  <g
     id="22-22-system-suspend-hibernate"
     transform="translate(-110,-988.36218)">
    <rect
       id="rect4248"
       width="22"
       height="22"
       x="0"
       y="1030.36"
       style="opacity:0.001;fill:currentColor;fill-opacity:1;stroke:none;stroke-width:2;stroke-linecap:round;stroke-linejoin:round;stroke-miterlimit:4;stroke-dasharray:none;stroke-opacity:1" />
    <g
       id="g4447"
       transform="matrix(1.0009385,0,0,0.99883233,-322.31607,1012.4029)"
       style="display:inline;opacity:1;fill:currentColor;fill-opacity:1">
      <path
         id="path4455"
         class="ColorScheme-Text"
         d="M 80.044922,2 C 77.470989,1.9800034 75.161212,3.6075014 74.320312,6.0351562 74.096933,6.6800174 73.998569,7.3426625 74,8 73.999,8.6573375 74.09698,9.3199826 74.320312,9.9648438 75.161212,12.3925 77.470989,14.02 80.044922,14 82.618845,13.98 84.900212,12.315429 85.703125,9.875 85.906195,9.2577756 86.001361,8.6263907 86,8 86.001001,7.3736093 85.906205,6.7422244 85.703125,6.125 84.900212,3.684571 82.618845,2.0199966 80.044922,2 Z m -0.01563,1.9980469 c 1.722265,0.013384 3.234241,1.1151078 3.771484,2.7480469 C 83.936599,7.1589011 84.00029,7.582557 84,8 84.00029,8.417443 83.936639,8.8410989 83.800781,9.2539062 83.263538,10.886845 81.751562,11.988574 80.029297,12.001953 78.307032,12.015337 76.773605,10.936893 76.210938,9.3125 76.061566,8.8812761 75.995593,8.4378711 75.996094,8 75.995593,7.5621289 76.061556,7.1187239 76.210938,6.6875 76.773605,5.0631071 78.307032,3.9846625 80.029297,3.9980469 Z M 80,6 a 2,2 0 0 0 -2,2 2,2 0 0 0 2,2 2,2 0 0 0 2,-2 2,2 0 0 0 -2,-2 z"
         transform="matrix(0.99906238,0,0,1.001169,253.07856,20.983802)"
         style="fill:#eaeaea;fill-opacity:1" />
    </g>
  </g>
  <g
     id="22-22-system-lock-screen"
     transform="translate(22.000001,-988.36218)">
    <rect
       id="rect4255"
       width="22"
       height="22"
       x="0"
       y="1030.36"
       style="opacity:0.001;fill:currentColor;fill-opacity:1;stroke:none;stroke-width:2;stroke-linecap:round;stroke-linejoin:round;stroke-miterlimit:4;stroke-dasharray:none;stroke-opacity:1" />
    <path
       id="path5975"
       class="ColorScheme-Text"
       d="m 11,1034.3622 c -2.216,0 -4,1.8216 -4,4.0625 l 0,1.9375 -1,0 c -0.554,0 -1,0.446 -1,1 l 0,6 c 0,0.554 0.446,1 1,1 l 10,0 c 0.554,0 1,-0.446 1,-1 l 0,-6 c 0,-0.554 -0.446,-1 -1,-1 l -1,0 0,-1.9375 c 0,-2.24 -1.784,-4.0625 -4,-4.0625 z m 0,2 c 1.108,0 2,0.892 2,2 l 0,2 -4,0 0,-2 c 0,-1.108 0.892,-2 2,-2 z"
       style="fill:#eaeaea;fill-opacity:1" />
  </g>
  <g
     id="g1109"
     transform="translate(0,1.0000005)" />
  <g
     id="system-shutdown">
    <rect
       ry="0"
       rx="0"
       y="5e-07"
       x="0.065429814"
       height="32"
       width="32"
       id="rect1086"
       style="opacity:0;fill:#000000;fill-opacity:1;fill-rule:evenodd;stroke:none;stroke-width:2;stroke-linecap:round;stroke-linejoin:round;stroke-miterlimit:4;stroke-dasharray:none;stroke-opacity:1;paint-order:fill markers stroke" />
    <path
       inkscape:connector-curvature="0"
       id="path894"
       d="M 16.06543,1.0000005 A 15,15 0 0 0 1.0654297,16 15,15 0 0 0 16.06543,31 a 15,15 0 0 0 15,-15 15,15 0 0 0 -15,-14.9999995 z m 0,6 c 0.277,0 0.5,0.223 0.5,0.5 V 15.5 c 0,0.277 -0.223,0.5 -0.5,0.5 -0.277,0 -0.5,-0.223 -0.5,-0.5 V 7.5000005 c 0,-0.277 0.223,-0.5 0.5,-0.5 z m -2.996094,0.544922 a 0.50014109,0.50014109 0 0 1 0.171875,0.970703 C 9.6223497,9.8808565 7.5025041,13.63046 8.1962891,17.435547 8.8900751,21.240633 12.197612,23.999824 16.06543,24 c 3.867818,1.76e-4 7.175009,-2.759431 7.869141,-6.564453 0.694132,-3.805023 -1.426185,-7.5543605 -5.044922,-8.9199215 a 0.50014109,0.50014109 0 1 1 0.353515,-0.935547 C 23.30787,9.1139295 25.698623,13.341285 24.918946,17.615234 24.139269,21.889184 20.409914,25.000198 16.06543,25 11.720948,24.999802 7.9912001,21.88925 7.2119141,17.615234 6.4326281,13.341214 8.8248034,9.1135575 12.889649,7.5800785 a 0.50014109,0.50014109 0 0 1 0.179687,-0.035156 z"
       style="opacity:1;fill:#eaeaea;fill-opacity:1;stroke:none;stroke-width:6;stroke-linecap:round;stroke-miterlimit:4;stroke-dasharray:none;stroke-opacity:1" />
  </g>
  <g
     id="system-reboot">
    <rect
       style="opacity:0;fill:#000000;fill-opacity:1;fill-rule:evenodd;stroke:none;stroke-width:2;stroke-linecap:round;stroke-linejoin:round;stroke-miterlimit:4;stroke-dasharray:none;stroke-opacity:1;paint-order:fill markers stroke"
       id="rect1129-7"
       width="32"
       height="32"
       x="-40"
       y="5.5128034e-08"
       rx="0"
       ry="0" />
    <path
       inkscape:connector-curvature="0"
       id="circle896"
       d="M -24,1.0000001 A 15,15 0 0 0 -39,16 15,15 0 0 0 -24,31 15,15 0 0 0 -9,16 15,15 0 0 0 -24,1.0000001 Z m -0.111328,6 c 2.15652,-0.02395 4.28267,0.7340924 5.96289,2.1777344 V 8.3613282 c 0,-0.276999 0.223002,-0.5 0.5,-0.5 0.277001,0 0.5,0.223001 0.5,0.5 v 1.9999998 c 0,0.0097 -0.0053,0.01776 -0.0059,0.02734 a 0.50078729,0.50078729 0 0 1 0,0.0039 0.50078729,0.50078729 0 0 1 -0.02148,0.111328 c -0.01279,0.04255 -0.03173,0.0803 -0.05469,0.117188 a 0.50078729,0.50078729 0 0 1 -0.002,0.002 c -9.72e-4,0.0015 -0.0029,0.0024 -0.0039,0.0039 a 0.50078729,0.50078729 0 0 1 -0.02539,0.03711 c -0.03138,0.04013 -0.06729,0.07267 -0.109375,0.101562 -0.04179,0.02869 -0.08504,0.05142 -0.134765,0.06641 a 0.50078729,0.50078729 0 0 1 -0.01953,0.0039 c -0.01918,0.005 -0.03857,0.009 -0.05859,0.01172 a 0.50078729,0.50078729 0 0 1 -0.01953,0.0039 c -0.01559,0.0015 -0.02894,0.0098 -0.04492,0.0098 h -2 c -0.276998,0 -0.5,-0.223 -0.5,-0.5 0,-0.277 0.223002,-0.4999996 0.5,-0.4999996 h 0.765626 c -2.414062,-2.017676 -5.8294,-2.4568658 -8.708985,-1.0136719 -3.238533,1.6230935 -4.980743,5.2132825 -4.251953,8.7617185 a 0.50014109,0.50014109 0 1 1 -0.978516,0.201172 c -0.818874,-3.987056 1.144357,-8.0336987 4.783204,-9.8574217 0.909711,-0.455931 1.867932,-0.745613 2.835937,-0.875 0.363072,-0.048536 0.728177,-0.074101 1.091867,-0.078141 z m 8.449219,6.7636719 a 0.50014109,0.50014109 0 0 1 0.484375,0.425781 c 0.818874,3.987056 -1.144357,8.033699 -4.783204,9.857422 -0.909711,0.455931 -1.867932,0.745613 -2.835937,0.875 -2.513776,0.336 -5.091398,-0.408878 -7.054687,-2.09375 v 0.810547 c 0,0.277 -0.223,0.5 -0.5,0.5 -0.277001,0 -0.5,-0.223 -0.5,-0.5 v -2 c 0,-0.0097 0.0053,-0.01776 0.0059,-0.02734 a 0.50078729,0.50078729 0 0 1 0,-0.0039 0.50078729,0.50078729 0 0 1 0.02148,-0.111328 c 0.01279,-0.04255 0.03173,-0.0803 0.05469,-0.117188 a 0.50078729,0.50078729 0 0 1 0.0059,-0.0059 c 0.0082,-0.01268 0.01612,-0.02526 0.02539,-0.03711 0.03138,-0.04013 0.06729,-0.07267 0.109375,-0.101563 0.04179,-0.02869 0.08504,-0.05142 0.134765,-0.06641 a 0.50078729,0.50078729 0 0 1 0.07813,-0.01563 c 0.0067,-8.93e-4 0.01278,-0.0033 0.01953,-0.0039 0.01559,-0.0015 0.02894,-0.0098 0.04492,-0.0098 h 2 c 0.276998,0 0.499999,0.223 0.5,0.5 0,0.277 -0.223003,0.5 -0.5,0.5 h -0.765626 c 2.414062,2.017675 5.8294,2.456866 8.708985,1.013672 3.238533,-1.623093 4.980743,-5.213283 4.251953,-8.761719 a 0.50014109,0.50014109 0 0 1 0.443359,-0.625 0.50014109,0.50014109 0 0 1 0.05078,-0.002 z"
       style="opacity:1;fill:#eaeaea;fill-opacity:1;stroke:none;stroke-width:6;stroke-linecap:round;stroke-miterlimit:4;stroke-dasharray:none;stroke-opacity:1" />
  </g>
  <g
     id="system-suspend">
    <rect
       ry="0"
       rx="0"
       y="1.107398"
       x="-80"
       height="32"
       width="32"
       id="rect964"
       style="opacity:0;fill:#000000;fill-opacity:1;fill-rule:evenodd;stroke:none;stroke-width:2;stroke-linecap:round;stroke-linejoin:round;stroke-miterlimit:4;stroke-dasharray:none;stroke-opacity:1;paint-order:fill markers stroke" />
    <path
       inkscape:connector-curvature="0"
       id="circle898"
       d="m -64,2.1073977 a 15,15 0 0 0 -15,15.0000003 15,15 0 0 0 15,15 15,15 0 0 0 15,-15 15,15 0 0 0 -15,-15.0000003 z m -1.214844,6.0449218 c 0.111688,-0.009 0.260998,0.0139 0.386719,0.0957 0.125721,0.0818 0.202851,0.205444 0.238281,0.302734 0.07086,0.194582 0.04764,0.316205 0.0332,0.427734 -0.02867,0.221394 -0.09333,0.418601 -0.109375,0.494141 v 0.0039 c -0.05266,0.260694 -0.0927,0.5244175 -0.11914,0.7890625 -0.02676,0.265094 -0.04083,0.532386 -0.04102,0.798828 4e-5,0.188887 0.0081,0.376015 0.02148,0.564453 v 0.002 c 0.0186,0.266132 0.05062,0.530013 0.0957,0.792969 0.0458,0.262589 0.104011,0.522599 0.175781,0.779297 0.07124,0.257107 0.155403,0.511056 0.251953,0.759765 0.09592,0.247728 0.204139,0.491554 0.324219,0.728516 l 0.002,0.002 c 0.121007,0.23668 0.254483,0.467941 0.398437,0.691406 0.144078,0.224534 0.299064,0.443321 0.464844,0.652344 0.165727,0.209041 0.341572,0.408159 0.527344,0.599609 0.1853,0.191279 0.380541,0.375019 0.583984,0.546875 h 0.002 c 0.204058,0.17132 0.416589,0.332305 0.636719,0.482422 0.219634,0.150321 0.446169,0.290274 0.679688,0.417969 0.234255,0.127755 0.474861,0.243934 0.720703,0.347656 0.245854,0.104406 0.49689,0.196091 0.751953,0.275391 0.254535,0.07841 0.512357,0.144626 0.773437,0.197266 0.261342,0.05298 0.525724,0.09252 0.791016,0.11914 0.265716,0.02682 0.533731,0.04089 0.800781,0.04102 0.188237,-9e-5 0.376663,-0.0081 0.564453,-0.02148 l -0.0078,0.002 c 0.05087,-0.0045 0.216957,-0.03551 0.402344,-0.03711 0.09269,-7.8e-4 0.191591,-0.01492 0.36914,0.07031 0.08877,0.04262 0.211974,0.135595 0.277344,0.28711 0.06537,0.151516 0.04715,0.314423 0.01172,0.416015 -1.267579,3.635029 -4.632229,6.281303 -8.617188,6.283203 h -0.002 c -4.964575,-4.8e-5 -8.999952,-4.035426 -9,-9 v -0.002 c 0.0054,-4.482136 3.192539,-8.1110995 7.5625,-8.9023425 l 0.02344,-0.0059 z m -0.441406,1.195313 c -3.607266,0.9175065 -6.165322,3.9150615 -6.169922,7.7167965 4.3e-5,4.424229 3.57577,7.999957 8,8 3.306976,-0.0016 6.074927,-2.090278 7.361328,-5.013672 -0.119839,0.0049 -0.239412,0.01364 -0.359375,0.01367 h -0.002 c -0.300437,-1.5e-4 -0.599536,-0.01672 -0.898437,-0.04687 -0.298485,-0.02996 -0.5947,-0.07518 -0.888672,-0.134766 -0.293712,-0.05922 -0.58475,-0.132503 -0.871094,-0.220703 h -0.002 c -0.286937,-0.08922 -0.56912,-0.193091 -0.845703,-0.310547 -0.276004,-0.116509 -0.545578,-0.247185 -0.808594,-0.390625 -0.262701,-0.143652 -0.518539,-0.299641 -0.765625,-0.46875 -0.248121,-0.169207 -0.486823,-0.349813 -0.716797,-0.542968 v -0.002 h -0.002 c -0.229311,-0.193637 -0.447419,-0.397713 -0.65625,-0.613282 -0.208988,-0.215375 -0.40731,-0.440616 -0.59375,-0.675781 -0.186498,-0.235147 -0.361351,-0.479826 -0.523438,-0.732422 -0.162486,-0.252234 -0.310769,-0.512101 -0.447265,-0.779297 h -0.002 v -0.002 c -0.13561,-0.267397 -0.256975,-0.540721 -0.365235,-0.820312 -0.108397,-0.279216 -0.203173,-0.562938 -0.283203,-0.851563 -0.08075,-0.288794 -0.147689,-0.581556 -0.199218,-0.876953 v -0.0019 c -0.05061,-0.295169 -0.08648,-0.593823 -0.107422,-0.892578 -0.01514,-0.211969 -0.02338,-0.424184 -0.02344,-0.636718 v -0.002 c 2.1e-4,-0.29974 0.01677,-0.598258 0.04687,-0.896485 0.02746,-0.2748465 0.07044,-0.5472215 0.123047,-0.8183585 z m 4.896484,1.7148435 h 2.830078 c 0.06644,0 0.129601,0.01443 0.1875,0.03711 0.06278,0.02532 0.118994,0.06251 0.166016,0.109375 0.04702,0.04687 0.08405,0.103276 0.109375,0.166016 0.04898,0.120189 0.04898,0.256764 0,0.376953 l -0.002,0.002 c -0.02524,0.06123 -0.06135,0.116 -0.107422,0.162109 l -1.976562,1.976563 H -57.25 c 0.277006,0 0.5,0.22296 0.5,0.5 0,0.277001 -0.222997,0.5 -0.5,0.5 h -3.507812 c -0.210569,0 -0.388961,-0.131146 -0.462891,-0.314453 -0.01169,-0.02948 -0.0096,-0.06156 -0.01563,-0.0918 -0.0064,-0.03175 -0.01953,-0.05973 -0.01953,-0.09375 -2.7e-4,-0.06539 0.01374,-0.129797 0.03906,-0.191407 0.02547,-0.06161 0.05887,-0.117572 0.105469,-0.164062 l 0.0039,-0.0039 1.970703,-1.970703 h -1.623047 c -0.277006,0 -0.5,-0.222961 -0.5,-0.5 0,-0.27704 0.222999,-0.5 0.5,-0.5 z"
       style="opacity:1;fill:#eaeaea;fill-opacity:1;stroke:none;stroke-width:6;stroke-linecap:round;stroke-miterlimit:4;stroke-dasharray:none;stroke-opacity:1" />
  </g>
  <g
     id="system-suspend-hibernate">
    <rect
       style="opacity:0;fill:#000000;fill-opacity:1;fill-rule:evenodd;stroke:none;stroke-width:2;stroke-linecap:round;stroke-linejoin:round;stroke-miterlimit:4;stroke-dasharray:none;stroke-opacity:1;paint-order:fill markers stroke"
       id="rect887"
       width="32"
       height="32"
       x="42.5"
       y="0"
       rx="0"
       ry="0" />
    <path
       inkscape:connector-curvature="0"
       id="circle900"
       d="m 58.5,1 a 15,15 0 0 0 -15,15 15,15 0 0 0 15,15 15,15 0 0 0 15,-15 15,15 0 0 0 -15,-15 z m 0,6 a 0.5,0.5 0 0 1 0,1 c -3.237199,0 -6.151802,1.948671 -7.390625,4.939453 -1.238823,2.990782 -0.554671,6.427751 1.734375,8.716797 2.289046,2.289046 5.726015,2.973198 8.716797,1.734375 C 64.551329,22.151802 66.5,19.237199 66.5,16 a 0.5,0.5 0 0 1 1,0 c 0,3.638724 -2.194898,6.921974 -5.556641,8.314453 -3.361743,1.39248 -7.233674,0.621795 -9.80664,-1.951172 -2.572967,-2.572967 -3.343652,-6.444899 -1.951172,-9.80664 C 51.578027,9.194897 54.861276,7 58.5,7 Z m 3.792969,2.162109 h 2.830078 c 0.06644,0 0.1296,0.01443 0.1875,0.03711 0.06278,0.02532 0.118997,0.06251 0.166015,0.109375 0.04702,0.04687 0.08405,0.103275 0.109376,0.166015 0.04898,0.120189 0.04898,0.256764 0,0.376953 l -0.002,0.00195 c -0.02524,0.06123 -0.06135,0.116 -0.107422,0.16211 L 63.5,11.992187 h 2.302734 c 0.277006,-10e-7 0.5,0.22296 0.5,0.5 0,0.277 -0.222998,0.5 -0.5,0.5 h -3.507812 c -0.210569,-10e-7 -0.388961,-0.131146 -0.462891,-0.314453 -0.01169,-0.02948 -0.01158,-0.06156 -0.01758,-0.0918 -0.0064,-0.03175 -0.01953,-0.05973 -0.01953,-0.09375 -2.7e-4,-0.06539 0.01374,-0.129796 0.03906,-0.191406 0.02547,-0.06161 0.06082,-0.117572 0.107422,-0.164062 l 0.0039,-0.0039 1.970704,-1.970703 H 62.29296 c -0.277006,0 -0.5,-0.222961 -0.5,-0.5 0,-0.27704 0.222998,-0.5 0.5,-0.5 z m -4.804688,8.740235 a 0.49991579,0.49991579 0 0 1 0.513672,0.548828 c -0.01572,0.188685 0.07332,0.367247 0.234375,0.466797 0.161054,0.0996 0.361686,0.100316 0.523438,0.002 0.161751,-0.09841 0.252671,-0.276053 0.238281,-0.464844 a 0.50047477,0.50047477 0 1 1 0.998047,-0.07617 c 0.04281,0.561849 -0.23542,1.101641 -0.716797,1.394531 -0.481377,0.292846 -1.089061,0.290454 -1.568359,-0.0059 -0.479302,-0.296273 -0.751849,-0.83886 -0.705079,-1.400391 a 0.49991579,0.49991579 0 0 1 0.482422,-0.464843 z"
       style="opacity:1;fill:#eaeaea;fill-opacity:1;stroke:none;stroke-width:6;stroke-linecap:round;stroke-miterlimit:4;stroke-dasharray:none;stroke-opacity:1" />
  </g>
  <g
     id="system-log-out">
    <rect
       ry="0"
       rx="0"
       y="1.1e-07"
       x="82.461914"
       height="32"
       width="32"
       id="rect950"
       style="opacity:0;fill:#000000;fill-opacity:1;fill-rule:evenodd;stroke:none;stroke-width:2;stroke-linecap:round;stroke-linejoin:round;stroke-miterlimit:4;stroke-dasharray:none;stroke-opacity:1;paint-order:fill markers stroke" />
    <path
       inkscape:connector-curvature="0"
       id="circle902"
       d="m 98.461914,1.0000001 a 15,15 0 0 0 -15,14.9999999 15,15 0 0 0 15,15 A 15,15 0 0 0 113.46191,16 15,15 0 0 0 98.461914,1.0000001 Z m -0.15625,5.496094 c 0.90768,0.110902 1.599611,1.034406 1.59961,2.003906 V 23.5 c 0,1.108 -0.903139,2.156695 -2,2 l -7,-1 c -1.09686,-0.156695 -2,-0.892 -2,-2 V 9.5000001 c 0,-1.108 0.90314,-1.843305 2,-2 l 7,-1 c 0.137111,-0.01958 0.27072,-0.019756 0.40039,-0.00391 z m -0.199219,1.001953 c -0.0648,-0.00791 -0.132621,-0.00589 -0.201171,0.00391 l -7,1 c -0.548429,0.07835 -1,0.446 -1,1 V 22.501957 c 0,0.554 0.451571,0.92165 1,1 l 7,1 c 0.54843,0.07835 1,-0.446 1,-1 V 8.5019571 c 0,-0.484754 -0.344989,-0.946507 -0.798829,-1.001957 z m 3.261715,0.00195 h 2 c 1.108,0 2,0.822934 2,1.845703 v 3.6933589 c -3.6e-4,0.254666 -0.22411,0.460938 -0.5,0.460938 -0.27589,0 -0.49964,-0.206272 -0.5,-0.460938 V 9.3457031 c 0,-0.511385 -0.446,-0.921875 -1,-0.921875 h -2 c -0.27671,1e-6 -0.50081,-0.207463 -0.5,-0.462891 3.6e-4,-0.254666 0.22412,-0.460937 0.5,-0.460937 z m 5.87891,5.8769529 c 0.12781,0 0.25561,0.05051 0.35351,0.148438 l 2.1211,2.121093 c 0.049,0.04897 0.0849,0.105846 0.10937,0.166016 0.0245,0.06017 0.0371,0.1236 0.0371,0.1875 0,0.0639 -0.0126,0.12733 -0.0371,0.1875 -0.0245,0.06017 -0.0604,0.117045 -0.10937,0.166015 l -2.1211,2.121094 c -0.19587,0.195869 -0.51116,0.195869 -0.70703,0 -0.19587,-0.195868 -0.19587,-0.511162 0,-0.707031 L 108.16113,16.5 h -4.79297 c -0.277,0 -0.5,-0.223 -0.5,-0.5 0,-0.277 0.223,-0.5 0.5,-0.5 h 4.79297 l -1.26758,-1.267578 c -0.19587,-0.195869 -0.19587,-0.511163 0,-0.707031 0.0979,-0.09794 0.22571,-0.148438 0.35352,-0.148438 z M 96.870117,15.5 c 0.276142,0 0.5,0.223858 0.5,0.5 0,0.276142 -0.223858,0.5 -0.5,0.5 -0.276142,0 -0.5,-0.223858 -0.5,-0.5 0,-0.276142 0.223858,-0.5 0.5,-0.5 z m 7.998043,3 c 0.27589,0 0.49964,0.206271 0.5,0.460937 v 3.69336 c 0,1.022769 -0.892,1.845703 -2,1.845703 h -2 c -0.27588,0 -0.49964,-0.206272 -0.5,-0.460938 -8.1e-4,-0.255428 0.22329,-0.462891 0.5,-0.46289 h 2 c 0.554,0 1,-0.41049 1,-0.921875 v -3.69336 c 3.3e-4,-0.254684 0.22409,-0.460937 0.5,-0.460937 z"
       style="opacity:1;fill:#eaeaea;fill-opacity:1;stroke:none;stroke-width:6;stroke-linecap:round;stroke-miterlimit:4;stroke-dasharray:none;stroke-opacity:1" />
  </g>
  <g
     id="system-lock-screen">
    <rect
       style="opacity:0;fill:#000000;fill-opacity:1;fill-rule:evenodd;stroke:none;stroke-width:2;stroke-linecap:round;stroke-linejoin:round;stroke-miterlimit:4;stroke-dasharray:none;stroke-opacity:1;paint-order:fill markers stroke"
       id="rect1067"
       width="32"
       height="32"
       x="122.62598"
       y="1.0960464e-07"
       rx="0"
       ry="0" />
    <path
       inkscape:connector-curvature="0"
       id="circle904"
       d="m 138.62597,1.0000001 a 15,15 0 0 0 -15,14.9999999 15,15 0 0 0 15,15 15,15 0 0 0 15,-15 15,15 0 0 0 -15,-14.9999999 z m 0,6 c 2.77,0 5,2.23 5,4.9999999 v 3 h 2 c 1.108,0 2,0.892 2,2 v 6 c 0,1.108 -0.892,2 -2,2 h -14 c -1.108,0 -2,-0.892 -2,-2 v -6 c 0,-1.108 0.892,-2 2,-2 h 2 v -3 c 0,-2.7699999 2.23,-4.9999999 5,-4.9999999 z m 0,1 c -2.216,0 -4,1.784 -4,3.9999999 v 3 h 8 v -3 c 0,-2.2159999 -1.784,-3.9999999 -4,-3.9999999 z m -7,7.9999999 c -0.554,0 -1,0.446 -1,1 v 6 c 0,0.554 0.446,1 1,1 h 14 c 0.554,0 1,-0.446 1,-1 v -6 c 0,-0.554 -0.446,-1 -1,-1 z m 7,2 c 0.277,0 0.5,0.223 0.5,0.5 v 2 c 0,0.277 -0.223,0.5 -0.5,0.5 -0.277,0 -0.5,-0.223 -0.5,-0.5 v -2 c 0,-0.277 0.223,-0.5 0.5,-0.5 z"
       style="opacity:1;fill:#eaeaea;fill-opacity:1;stroke:none;stroke-width:6;stroke-linecap:round;stroke-miterlimit:4;stroke-dasharray:none;stroke-opacity:1" />
  </g>
  <g
     id="system-switch-user">
    <rect
       ry="0"
       rx="0"
       y="-0.24999994"
       x="162.35751"
       height="32"
       width="32"
       id="rect956"
       style="opacity:0;fill:#000000;fill-opacity:1;fill-rule:evenodd;stroke:none;stroke-width:2;stroke-linecap:round;stroke-linejoin:round;stroke-miterlimit:4;stroke-dasharray:none;stroke-opacity:1;paint-order:fill markers stroke" />
    <path
       inkscape:connector-curvature="0"
       id="circle906"
       d="m 178.35751,0.75000006 a 15,15 0 0 0 -15,14.99999994 15,15 0 0 0 15,15 15,15 0 0 0 15,-15 15,15 0 0 0 -15,-14.99999994 z m 5.09766,9.50390594 c 0.0644,0.0081 0.12752,0.02787 0.1875,0.0625 l 3.46484,2 c 0.0183,0.01057 0.0285,0.02861 0.0449,0.04102 0.029,0.02179 0.0565,0.04282 0.0801,0.07031 0.0189,0.02193 0.0323,0.04582 0.0469,0.07031 0.0182,0.03036 0.0354,0.05961 0.0469,0.09375 0.0104,0.03061 0.0133,0.06168 0.0176,0.09375 0.003,0.02207 0.0137,0.04155 0.0137,0.06445 0,0.01105 -0.005,0.02038 -0.006,0.03125 -0.002,0.03143 -0.0115,0.06072 -0.0195,0.0918 -0.009,0.03629 -0.0183,0.07096 -0.0352,0.103515 -0.004,0.0076 -0.004,0.01596 -0.008,0.02344 -0.009,0.01553 -0.0229,0.02487 -0.0332,0.03906 -0.0232,0.03202 -0.0481,0.06031 -0.0781,0.08594 -0.0223,0.01913 -0.0454,0.03412 -0.0703,0.04883 -0.0285,0.01685 -0.0561,0.03199 -0.0879,0.04297 -0.0346,0.0121 -0.069,0.0172 -0.10547,0.02148 -0.0193,0.0023 -0.0363,0.01172 -0.0564,0.01172 h -17 c -0.27699,0 -0.5,-0.223 -0.5,-0.5 0,-0.277 0.22301,-0.5 0.5,-0.5 h 15.13281 l -1.84765,-1.066406 c -0.23989,-0.1385 -0.32209,-0.443705 -0.1836,-0.683594 0.10388,-0.179917 0.30272,-0.270322 0.4961,-0.246094 z M 169.85751,18.25 h 17 c 0.277,0 0.5,0.223 0.5,0.5 0,0.277 -0.223,0.5 -0.5,0.5 H 171.7247 l 1.84765,1.066406 c 0.23989,0.1385 0.3221,0.443705 0.1836,0.683594 -0.1385,0.239889 -0.44371,0.322094 -0.6836,0.183594 l -3.46484,-2 c -0.0183,-0.01057 -0.0285,-0.02861 -0.0449,-0.04102 -0.029,-0.02179 -0.0565,-0.04283 -0.0801,-0.07031 -0.0189,-0.02193 -0.0323,-0.04582 -0.0469,-0.07031 -0.0182,-0.03036 -0.0354,-0.05961 -0.0469,-0.09375 -0.0104,-0.03061 -0.0133,-0.06168 -0.0176,-0.09375 -0.003,-0.02207 -0.0136,-0.04155 -0.0136,-0.06445 0,-0.01105 0.005,-0.02038 0.006,-0.03125 0.002,-0.03142 0.0115,-0.06072 0.0195,-0.0918 0.009,-0.03629 0.0183,-0.07096 0.0352,-0.103516 0.004,-0.0076 0.004,-0.01597 0.008,-0.02344 0.009,-0.01553 0.0229,-0.02487 0.0332,-0.03906 0.0232,-0.03202 0.0481,-0.06031 0.0781,-0.08594 0.0223,-0.01913 0.0454,-0.03412 0.0703,-0.04883 0.0285,-0.01685 0.0561,-0.03198 0.0879,-0.04297 0.0346,-0.0121 0.069,-0.0172 0.10547,-0.02148 0.0192,-0.0023 0.0362,-0.01171 0.0563,-0.01171 z"
       style="opacity:1;fill:#eaeaea;fill-opacity:1;stroke:none;stroke-width:6;stroke-linecap:round;stroke-miterlimit:4;stroke-dasharray:none;stroke-opacity:1" />
  </g>
</svg>
