<?xml version="1.0" encoding="UTF-8" standalone="no"?>
<svg
   xmlns:dc="http://purl.org/dc/elements/1.1/"
   xmlns:cc="http://creativecommons.org/ns#"
   xmlns:rdf="http://www.w3.org/1999/02/22-rdf-syntax-ns#"
   xmlns:svg="http://www.w3.org/2000/svg"
   xmlns="http://www.w3.org/2000/svg"
   xmlns:sodipodi="http://sodipodi.sourceforge.net/DTD/sodipodi-0.dtd"
   xmlns:inkscape="http://www.inkscape.org/namespaces/inkscape"
   width="32"
   height="32"
   version="1.1"
   id="svg22"
   sodipodi:docname="view.svg"
   inkscape:version="0.92.4 5da689c313, 2019-01-14">
  <metadata
     id="metadata26">
    <rdf:RDF>
      <cc:Work
         rdf:about="">
        <dc:format>image/svg+xml</dc:format>
        <dc:type
           rdf:resource="http://purl.org/dc/dcmitype/StillImage" />
        <dc:title></dc:title>
      </cc:Work>
    </rdf:RDF>
  </metadata>
  <sodipodi:namedview
     pagecolor="#c8c8c8"
     bordercolor="#666666"
     borderopacity="1"
     objecttolerance="10"
     gridtolerance="10"
     guidetolerance="10"
     inkscape:pageopacity="0"
     inkscape:pageshadow="2"
     inkscape:window-width="1920"
     inkscape:window-height="1019"
     id="namedview24"
     showgrid="true"
     inkscape:zoom="8"
     inkscape:cx="34.260293"
     inkscape:cy="27.053357"
     inkscape:window-x="0"
     inkscape:window-y="36"
     inkscape:window-maximized="1"
     inkscape:current-layer="svg22"
     inkscape:snap-bbox="true"
     inkscape:bbox-paths="true"
     inkscape:bbox-nodes="true"
     inkscape:snap-bbox-edge-midpoints="true"
     inkscape:snap-global="false">
    <inkscape:grid
       type="xygrid"
       id="grid851" />
  </sodipodi:namedview>
  <defs
     id="defs6">
    <style
       id="current-color-scheme"
       type="text/css">.ColorScheme-Text { color:#dedede; } .ColorScheme-Highlight { color:#5294e2; } .ColorScheme-ButtonBackground { color:#dedede; }</style>
    <filter
       id="a"
       x="-.036"
       y="-.036"
       width="1.072"
       height="1.072"
       color-interpolation-filters="sRGB">
      <feGaussianBlur
         stdDeviation="0.43466698"
         id="feGaussianBlur3" />
    </filter>
    <style
       id="style837"
       type="text/css" />
  </defs>
  <g
     id="view-refresh"
     transform="matrix(0 -1 -1 0 -218.84 494.56)"
     enable-background="new">
    <rect
       transform="scale(-1)"
       x="-481"
       y="258.97"
       width="16"
       height="16"
       color="#bebebe"
       fill="none"
       id="rect8" />
    <path
       transform="matrix(0 -1 -1 0 1079 -14.938)"
       d="m252.06 598.02-3.5625 2.9824 3.5606 3.0176v-2c2.2091 0 4 1.7909 4 4s-1.7909 4-4 4-4-1.7909-4-4c0-6e-3 -4e-3 -0.0113-4e-3 -0.0176h-1.9922c-1.1e-4 6e-3 -4e-3 0.0113-4e-3 0.0176 0 0.0333 4e-3 0.0665 8e-3 0.0996 0.0538 3.2672 2.7141 5.9004 5.9941 5.9004 3.3137 0 6-2.6863 6-6s-2.6863-6-6-6v-2z"
       fill="#eaeaea"
       id="path10" />
  </g>
  <g
     id="view-history">
    <rect
       width="32"
       height="32"
       rx="0"
       ry="0"
       style="opacity:0;stroke-width:2;paint-order:fill markers stroke"
       id="rect13"
       x="0"
       y="0" />
    <g
       transform="translate(-62.375,-2)"
       id="g843">
      <path
         inkscape:connector-curvature="0"
         style="opacity:0.8;fill:#ffffff;stroke-width:1.14285719"
         d="m 78.375,9 a 9,9 0 0 1 3.849609,0.875 l -0.002,0.00391 a 0.5,0.5 0 0 1 0.275391,0.447266 0.5,0.5 0 0 1 -0.5,0.5 0.5,0.5 0 0 1 -0.144531,-0.02148 8,8 0 0 1 -0.002,0 0.5,0.5 0 0 1 -0.01367,-0.0059 A 0.5,0.5 0 0 1 81.75,10.759766 8,8 0 0 0 78.375,10 a 8,8 0 0 0 -8,8 8,8 0 0 0 8,8 8,8 0 0 0 8,-8 8,8 0 0 0 -0.890625,-3.65625 0.5,0.5 0 0 1 -0.0625,-0.238281 0.5,0.5 0 0 1 0.5,-0.5 A 0.5,0.5 0 0 1 86.392578,13.9375 9,9 0 0 1 87.375,18 a 9,9 0 0 1 -9,9 9,9 0 0 1 -9,-9 9,9 0 0 1 9,-9 z"
         id="path837" />
      <path
         inkscape:connector-curvature="0"
         style="opacity:0.8;fill:#ffffff;stroke-width:1.14285719"
         d="m 77.875,12 c 0.277,0 0.5,0.223 0.5,0.5 v 4.792969 l 3.388672,3.388672 c 0.195868,0.195868 0.195868,0.511162 0,0.707031 -0.195869,0.195868 -0.511163,0.195868 -0.707031,0 L 77.521484,17.853516 C 77.474472,17.806503 77.437409,17.750278 77.412109,17.6875 77.387626,17.62733 77.375,17.563905 77.375,17.5 v -5 c 0,-0.277 0.223,-0.5 0.5,-0.5 z"
         id="path827" />
    </g>
  </g>
</svg>
